<?xml version="1.0" encoding="UTF-8" standalone="no"?>
<!-- Created with Inkscape (http://www.inkscape.org/) -->

<svg
   version="1.1"
   id="svg1"
   width="400"
   height="400"
   viewBox="0 0 400 400"
   xmlns="http://www.w3.org/2000/svg"
   xmlns:svg="http://www.w3.org/2000/svg">
  <defs
     id="defs1" />
  <g
     id="g1">
    <rect
       style="fill:#a3e635;paint-order:markers fill stroke;fill-opacity:1"
       id="rect2"
       width="464.09628"
       height="470.5321"
       x="-40"
       y="-35.021114"
       ry="94.459564" />
    <path
       fill-rule="evenodd"
       clip-rule="evenodd"
       d="m 290.75897,42.428287 c 33.56707,0 61.57435,23.810366 68.05104,55.463321 0.92524,4.522012 1.41148,9.203782 1.41148,13.999202 v 177.82403 c 0,38.36273 -31.09976,69.46252 -69.46252,69.46252 H 112.93549 c -7.59503,0 -14.904992,-1.21976 -21.745662,-3.47035 C 63.477623,346.57964 43.472972,320.48396 43.472972,289.71484 V 111.89081 c 0,-38.36304 31.099483,-69.462523 69.462518,-69.462523 z m -28.174,22.228009 h 28.174 c 23.01987,0 42.19431,16.468172 46.38429,38.266064 -13.36737,1.51456 -28.64912,0.11114 -44.78666,-6.804272 -14.29816,-6.12881 -23.78396,-17.483156 -29.77163,-31.461792 z m -65.95327,0 h 42.21932 c 7.01571,21.115212 20.45254,41.479124 44.75053,51.892394 19.49119,8.35328 38.00156,10.29101 54.39193,8.66336 v 22.7123 c -22.25301,7.04461 -44.42822,9.89563 -62.17173,4.70234 -8.81341,-2.57956 -18.92715,-9.42829 -29.81053,-20.20221 C 235.27787,121.7981 224.56675,108.13094 214.45301,93.191498 208.16804,83.907688 202.18315,74.236843 196.6317,64.656296 Z m -25.52747,0 h -29.41349 c 1.34063,25.152932 -4.58591,55.876204 -26.6322,87.000404 -14.60602,20.62038 -31.878571,31.9611 -49.35756,37.02631 v 44.3143 c 10.532178,-6.3961 22.931241,-15.13171 37.44808,-26.92645 34.3003,-27.86975 61.31622,-38.95818 81.80183,-40.98649 20.3664,-2.01664 34.84517,5.04826 41.22183,13.97752 6.69619,9.37383 10.48051,21.93543 11.90588,35.18332 1.44204,13.40905 0.56403,28.36572 -2.82018,43.20847 -6.72119,29.50767 -23.78952,60.22121 -54.53697,76.7783 -1.67432,0.90302 -3.36393,1.80881 -5.06659,2.71737 h 34.54982 c 13.51185,-17.15446 24.32577,-34.19778 28.20456,-47.55404 4.37613,-15.07892 6.17383,-31.06363 7.85204,-46.0064 l 0.003,-0.003 v -0.005 c 0.60293,-5.36528 1.19198,-10.59998 1.87826,-15.60961 1.19198,-8.68004 2.83685,-17.87688 6.36833,-24.50917 1.86993,-3.50923 4.84015,-7.41581 9.61917,-9.67195 5.03186,-2.37562 10.26934,-2.08388 14.8622,-0.55293 12.87557,4.29279 29.99113,5.18191 59.00146,-2.08665 v -19.82601 c -22.37231,6.30387 -46.76477,9.17211 -68.41762,2.83546 -13.9703,-4.08963 -27.23208,-13.88858 -39.20186,-25.73944 -12.11982,-11.99812 -23.73951,-26.932 -34.3256,-42.56774 C 186.99308,92.278478 178.56339,78.192873 171.10423,64.656296 Z M 337.99348,213.81177 c -27.63775,6.32661 -47.51236,6.06266 -64.32229,0.86133 -1.24199,2.90909 -2.40063,8.06597 -3.50647,16.12083 -0.55014,4.00104 -1.05861,8.54945 -1.61152,13.4674 v 0.003 c -1.71712,15.32623 -3.83712,34.23945 -8.79952,51.32723 -3.80099,13.09785 -12.02535,27.48771 -21.80012,41.35798 h 22.36138 c 4.12607,-10.25822 7.92428,-20.02742 10.90839,-28.23789 3.20639,-8.82452 5.21247,-15.17062 5.85986,-18.39924 1.22532,-6.13215 3.56204,-12.73109 9.04402,-17.40727 5.70148,-4.86797 12.7033,-5.91266 19.26334,-5.57926 6.46002,0.33064 14.03421,2.06998 22.5781,4.52064 3.10636,0.8891 6.44612,1.90606 10.02483,3.03687 z m -0.72241,84.1802 c -5.80151,-1.88382 -10.90839,-3.48146 -15.4318,-4.77902 -8.25492,-2.37006 -13.79247,-3.49535 -17.57679,-3.68707 -2.44508,-0.12504 -3.43423,0.17782 -3.71763,0.30286 -0.16115,0.18893 -0.95024,1.26424 -1.66432,4.84293 -1.02249,5.10687 -3.60928,12.94224 -6.76565,21.63062 -2.26448,6.23496 -4.95684,13.26456 -7.87149,20.64706 h 6.51558 c 23.26438,0 42.59997,-16.81826 46.5121,-38.95738 z m -209.57702,38.95738 c 14.55656,-7.5075 29.249,-15.1595 42.48911,-22.28913 23.43387,-12.61717 37.62367,-36.77623 43.40295,-62.14394 2.87019,-12.59494 3.55371,-25.07875 2.3923,-35.89267 -1.18087,-10.97786 -4.16776,-19.42728 -7.89372,-24.64253 -0.56682,-0.79464 -6.23218,-6.23217 -20.94435,-4.77624 -14.59352,1.44483 -37.59061,9.80533 -69.97431,36.11773 -20.27166,16.47096 -37.23607,27.75444 -51.46505,35.21472 v 25.06763 c 3.507576,-3.20917 7.468328,-5.89042 11.128725,-8.17713 3.72903,-2.33116 7.792302,-4.62342 11.78557,-6.86289 l 0.989701,-0.55571 c 3.730131,-2.08943 7.432485,-4.16496 11.108994,-6.36553 8.04238,-4.81793 15.27398,-9.8498 20.83459,-15.70409 9.62751,-10.13597 23.52362,-22.23078 36.58785,-30.48849 6.44501,-4.07606 13.40543,-7.67977 19.9727,-9.33298 6.16382,-1.55318 15.71909,-2.18391 22.37915,5.42919 6.33777,7.24355 8.96344,18.10749 4.34836,32.20838 -4.38448,13.39515 -15.39567,30.3051 -36.67982,52.29971 -22.0927,22.82817 -44.18622,34.26447 -62.81274,37.90986 -2.10082,0.41122 -4.16747,0.72242 -6.19244,0.94191 4.36058,1.32813 8.98873,2.0422 13.78387,2.0422 z M 65.70098,165.16522 c 10.769185,-4.46643 21.498092,-12.633 31.218948,-26.35686 C 116.11437,111.71048 120.7528,85.434198 119.4319,64.656296 h -6.49641 c -26.087068,0 -47.23451,21.147722 -47.23451,47.234514 z m 234.82164,124.67466 c -0.0528,0.025 -0.075,0.0417 -0.0723,0.0417 0.003,0.003 0.0139,-0.003 0.0334,-0.0166 l 0.0139,-0.009 z M 170.01284,234.2393 c -11.1932,7.07407 -23.6945,17.8991 -32.34814,27.00981 -7.6356,8.03819 -16.90079,14.29538 -25.52942,19.46339 -3.9652,2.37285 -7.94151,4.6012 -11.62692,6.6684 l -1.020818,0.57238 c -4.038823,2.26447 -7.66005,4.31223 -10.877552,6.32386 -6.937913,4.33446 -9.838112,7.25189 -10.74724,9.11626 -0.260624,0.53625 -0.291745,0.84189 -0.211162,1.30868 0.114197,0.66684 0.592656,2.20335 2.496206,4.74012 l 0.185041,0.24728 0.171162,0.25563 c 0.01109,0.0139 0.260902,0.3612 1.056386,0.84744 0.821598,0.50291 2.093322,1.06972 3.899621,1.51429 3.630116,0.89467 8.914265,1.15307 15.616286,-0.15838 13.3268,-2.60623 31.52236,-11.31406 51.10746,-31.55266 20.39419,-21.07214 28.68885,-35.0869 31.52793,-43.75304 1.68933,-5.16246 1.34201,-7.95763 0.80298,-9.38578 -0.27229,0.05 -0.59459,0.11948 -0.97525,0.21673 -3.20973,0.80854 -7.84288,2.97299 -13.52657,6.56559 z m 15.69658,-6.8879 c -0.005,0.009 -0.0723,0.009 -0.18339,-0.0139 0.13059,-0.003 0.18894,0.009 0.18339,0.0139 z"
       fill="#56704e"
       id="path6"
       style="fill:#232323;fill-opacity:0.94530272;stroke-width:2.7785" />
  </g>
</svg>
