<?xml version="1.0" encoding="UTF-8" standalone="no"?>
<svg
   width="113.99982"
   height="114"
   viewBox="0 0 113.99982 114"
   fill="none"
   version="1.1"
   id="svg6"
   xmlns="http://www.w3.org/2000/svg"
   xmlns:svg="http://www.w3.org/2000/svg">
  <defs
     id="defs6" />
  <path
     fill-rule="evenodd"
     clip-rule="evenodd"
     d="M 88.999803,1.8066406e-7 C 101.0808,1.8066406e-7 111.1608,8.5695002 113.4918,19.9616 c 0.333,1.6275 0.508,3.3125 0.508,5.0384 V 89.000003 C 113.9998,102.807 102.8068,114 88.999803,114 h -63.9998 c -2.7335,0 -5.3644,-0.439 -7.8264,-1.249 C 7.1998034,109.466 3.359375e-6,100.074 3.359375e-6,89.000003 V 25 C 3.359375e-6,11.1929 11.192903,1.8066406e-7 25.000003,1.8066406e-7 Z M 78.859803,8.0000002 h 10.14 c 8.285,0 15.185997,5.9269998 16.693997,13.7721998 -4.811,0.5451 -10.310997,0.04 -16.118997,-2.4489 -5.146,-2.2058 -8.56,-6.2923 -10.715,-11.3232998 z m -23.737,0 h 15.195 c 2.525,7.5994998 7.361,14.9285998 16.106,18.6764018 7.015,3.0064 13.676997,3.7038 19.575997,3.118 v 8.174301 c -8.008997,2.5354 -15.989997,3.5615 -22.375997,1.6924 -3.172,-0.9284 -6.812,-3.393301 -10.729,-7.270901 -3.863,-3.8245 -7.718,-8.743402 -11.358,-14.120202 -2.262,-3.3413 -4.416,-6.8219 -6.414,-10.2699998 z m -9.1875,0 h -10.5861 c 0.4825,9.0526998 -1.6505,20.1102018 -9.5851,31.3120028 -5.2568,7.4214 -11.4733,11.503 -17.7640996,13.326 v 15.949 c 3.7905996,-2.302 8.2530996,-5.446 13.4777996,-9.691 12.3449,-10.0305 22.0681,-14.0213 29.441,-14.7513 7.33,-0.7258 12.541,1.8169 14.836,5.0306 2.41,3.3737 3.772,7.8947 4.285,12.6627 0.519,4.826 0.203,10.209 -1.015,15.551 -2.419,10.62 -8.562,21.674 -19.6282,27.632997 -0.6026,0.325 -1.2107,0.651 -1.8235,0.978 h 12.4347 c 4.863,-6.173997 8.755,-12.307997 10.151,-17.114997 1.575,-5.427 2.222,-11.18 2.826,-16.558 l 0.001,-0.001 v -0.002 c 0.217,-1.931 0.429,-3.815 0.676,-5.618 0.429,-3.124 1.021,-6.434 2.292,-8.821 0.673,-1.263 1.742,-2.669 3.462,-3.481 1.811,-0.855 3.696,-0.75 5.349,-0.199 4.634,1.545 10.794,1.865 21.234997,-0.751 v -7.1355 c -8.051997,2.2688 -16.830997,3.3011 -24.623997,1.0205 -5.028,-1.4717 -9.801,-4.9984 -14.109,-9.2636 -4.362,-4.318201 -8.544,-9.693001 -12.354,-15.320403 -3.259,-4.8136 -6.2929,-9.8831 -8.9775,-14.7549998 z M 105.9998,61.682003 c -9.946997,2.277 -17.099997,2.182 -23.149997,0.31 -0.447,1.047 -0.864,2.903 -1.262,5.802 -0.198,1.44 -0.381,3.077 -0.58,4.847 v 0.001 c -0.618,5.516 -1.381,12.323 -3.167,18.473 -1.368,4.714 -4.328,9.892997 -7.846,14.884997 h 8.048 c 1.485,-3.692 2.852,-7.207997 3.926,-10.162997 1.154,-3.176 1.876,-5.46 2.109,-6.622 0.441,-2.207 1.282,-4.582 3.255,-6.265 2.052,-1.752 4.572,-2.128 6.933,-2.008 2.325,0.119 5.051,0.745 8.125997,1.627 1.118,0.32 2.32,0.686 3.608,1.093 z m -0.26,30.297 c -2.088,-0.678 -3.926,-1.253 -5.554,-1.72 -2.970997,-0.853 -4.963997,-1.258 -6.325997,-1.327 -0.88,-0.045 -1.236,0.064 -1.338,0.109 -0.058,0.068 -0.342,0.455 -0.599,1.743 -0.368,1.838 -1.299,4.658 -2.435,7.785 -0.815,2.243997 -1.784,4.773997 -2.833,7.430997 h 2.345 c 8.373,0 15.331997,-6.052997 16.739997,-14.020997 z M 30.311703,106 c 5.239,-2.702 10.5269,-5.456 15.2921,-8.021997 8.434,-4.541 13.541,-13.236 15.621,-22.366 1.033,-4.533 1.279,-9.026 0.861,-12.918 -0.425,-3.951 -1.5,-6.992 -2.841,-8.869 -0.204,-0.286 -2.243,-2.243 -7.538,-1.719 -5.2523,0.52 -13.5291,3.529 -25.1842,12.999 -7.2959,5.928 -13.4015,9.989 -18.5225996,12.674 v 9.022 c 1.2624,-1.155 2.6878996,-2.12 4.0052996,-2.943 1.3421,-0.839 2.8045,-1.664 4.2417,-2.47 l 0.3562,-0.2 c 1.3425,-0.752 2.675,-1.499 3.9982,-2.291 2.8945,-1.734 5.4972,-3.545 7.4985,-5.652 3.465,-3.648 8.4663,-8.001 13.1682,-10.973 2.3196,-1.467 4.8247,-2.764 7.1883,-3.359 2.2184,-0.559 5.6574,-0.786 8.0544,1.954 2.281,2.607 3.226,6.517 1.565,11.592 -1.578,4.821 -5.541,10.907 -13.2013,18.823 -7.9513,8.216 -15.9029,12.331997 -22.6067,13.643997 -0.7561,0.148 -1.4999,0.26 -2.2287,0.339 1.5694,0.478 3.2351,0.735 4.9609,0.735 z M 8.0000034,44.173803 c 3.8758996,-1.6075 7.7372996,-4.5467 11.2358996,-9.486001 6.9082,-9.752702 8.5776,-19.209702 8.1022,-26.6878018 h -2.3381 C 15.611103,8.0000002 8.0000034,15.6112 8.0000034,25 Z m 84.5137996,44.8712 c -0.019,0.009 -0.027,0.015 -0.026,0.015 0.001,0.001 0.005,-10e-4 0.012,-0.006 l 0.005,-0.003 z m -46.9713,-20.011 c -4.0285,2.546 -8.5278,6.442 -11.6423,9.721 -2.7481,2.893 -6.0827,5.145 -9.1882,7.005 -1.4271,0.854 -2.8582,1.656 -4.1846,2.4 l -0.3674,0.206 c -1.4536,0.815 -2.7569,1.552 -3.9149,2.276 -2.497,1.56 -3.5408,2.61 -3.868,3.281 -0.0938,0.193 -0.105,0.303 -0.076,0.471 0.0411,0.24 0.2133,0.793 0.8984,1.706 l 0.0666,0.089 0.0616,0.092 c 0.004,0.005 0.0939,0.13 0.3802,0.305 0.2957,0.181 0.7534,0.385 1.4035,0.545 1.3065,0.322 3.2083,0.415 5.6204,-0.057 4.7964,-0.938 11.3451,-4.072 18.3939,-11.356 7.34,-7.584 10.3253,-12.628 11.3471,-15.747 0.608,-1.858 0.483,-2.864 0.289,-3.378 -0.098,0.018 -0.214,0.043 -0.351,0.078 -1.1552,0.291 -2.8227,1.07 -4.8683,2.363 z m 5.6493,-2.479 c -0.002,0.003 -0.026,0.003 -0.066,-0.005 0.047,-0.001 0.068,0.003 0.066,0.005 z"
     fill="#ffffff"
     id="path6" />
</svg>
