<?xml version="1.0" standalone="no"?>
<!DOCTYPE svg PUBLIC "-//W3C//DTD SVG 1.0//EN" "http://www.w3.org/TR/2001/REC-SVG-20010904/DTD/svg10.dtd">
<svg xmlns="http://www.w3.org/2000/svg" xmlns:xlink="http://www.w3.org/1999/xlink" id="body_1" width="667" height="667">

<defs>
    <clipPath  id="1">

    <path id=""  clip-rule="evenodd" transform="matrix(1 0 0 1 0 0)"  d="M0 500L0 0L0 0L500 0L500 0L500 500L500 500L0 500z" />    </clipPath>
    <clipPath  id="2">

    <path id=""  clip-rule="evenodd" transform="matrix(1 0 0 1 0 0)"  d="M24.581158 153.5979C 24.581158 153.5979 25.542433 153.87256 25.954409 153.87256L25.954409 153.87256L25.954409 153.87256C 27.602308 153.87256 28.975555 152.63663 28.975555 150.98874L28.975555 150.98874L28.975555 150.98874C 28.975555 149.89014 28.28893 148.79153 27.327656 148.24225L27.327656 148.24225L27.327656 148.24225C 25.817083 147.41827 24.031858 148.10492 23.345234 149.47815L23.345234 149.47815L23.345234 149.47815C 22.65861 150.85144 23.207909 152.77396 24.581158 153.4606z" />    </clipPath>
    <clipPath  id="3">

    <path id=""  clip-rule="evenodd" transform="matrix(1 0 0 1 0 0)"  d="M24.581158 153.5979C 24.581158 153.5979 25.542433 153.87256 25.954409 153.87256L25.954409 153.87256L25.954409 153.87256C 27.602308 153.87256 28.975555 152.63663 28.975555 150.98874L28.975555 150.98874L28.975555 150.98874C 28.975555 149.89014 28.28893 148.79153 27.327656 148.24225L27.327656 148.24225L27.327656 148.24225C 25.817083 147.41827 24.031858 148.10492 23.345234 149.47815L23.345234 149.47815L23.345234 149.47815C 22.65861 150.85144 23.207909 152.77396 24.581158 153.4606" />    </clipPath>
    <clipPath  id="4">

    <path id=""  clip-rule="evenodd" transform="matrix(1 0 0 1 0 0)"  d="M153.66658 43.32602C 153.66658 43.32602 154.35321 43.32602 154.62784 43.18869L154.62784 43.18869L154.62784 43.18869L154.62784 43.18869L154.62784 43.18869L154.62784 43.18869L154.62784 43.18869C 156.13843 42.639374 156.96236 40.991486 156.55038 39.480927L156.55038 39.480927L156.55038 39.480927C 156.00108 37.970337 154.35318 37.146393 152.8426 37.55835L152.8426 37.55835L152.8426 37.55835C 151.33202 38.107666 150.50809 39.755554 150.92006 41.266144L150.92006 41.266144L150.92006 41.266144L150.92006 41.266144L150.92006 41.266144L150.92006 41.266144L150.92006 41.266144C 151.33205 42.502075 152.43065 43.32602 153.8039 43.32602z" />    </clipPath>
    <clipPath  id="5">

    <path id=""  clip-rule="evenodd" transform="matrix(1 0 0 1 0 0)"  d="M153.66658 43.32602C 153.66658 43.32602 154.35321 43.32602 154.62784 43.18869L154.62784 43.18869L154.62784 43.18869L154.62784 43.18869L154.62784 43.18869L154.62784 43.18869L154.62784 43.18869C 156.13843 42.639374 156.96236 40.991486 156.55038 39.480927L156.55038 39.480927L156.55038 39.480927C 156.00108 37.970337 154.35318 37.146393 152.8426 37.55835L152.8426 37.55835L152.8426 37.55835C 151.33202 38.107666 150.50809 39.755554 150.92006 41.266144L150.92006 41.266144L150.92006 41.266144L150.92006 41.266144L150.92006 41.266144L150.92006 41.266144L150.92006 41.266144C 151.33205 42.502075 152.43065 43.32602 153.8039 43.32602" />    </clipPath>
    <clipPath  id="6">

    <path id=""  clip-rule="evenodd" transform="matrix(1 0 0 1 0 0)"  d="M85.41609 422.0681C 84.47547 423.36917 84.71675 425.1787 85.9654 426.18787L85.9654 426.18787L85.9654 426.18787C 86.5147 426.59982 87.063995 426.87448 87.75062 426.87448L87.75062 426.87448L87.75062 426.87448C 89.39852 426.87448 90.77177 425.50122 90.77177 423.85333L90.77177 423.85333L90.77177 423.85333C 90.77177 422.2054 89.39852 420.83215 87.75062 420.83215L87.75062 420.83215L87.75062 420.83215C 86.789345 420.83215 85.9654 421.2441 85.41609 421.93076L85.41609 421.93076L85.41609 421.93076L85.41609 421.93076L85.41609 421.93076z" />    </clipPath>
    <clipPath  id="7">

    <path id=""  clip-rule="evenodd" transform="matrix(1 0 0 1 0 0)"  d="M85.41609 422.0681C 84.47547 423.36917 84.71675 425.1787 85.9654 426.18787L85.9654 426.18787L85.9654 426.18787C 86.5147 426.59982 87.063995 426.87448 87.75062 426.87448L87.75062 426.87448L87.75062 426.87448C 89.39852 426.87448 90.77177 425.50122 90.77177 423.85333L90.77177 423.85333L90.77177 423.85333C 90.77177 422.2054 89.39852 420.83215 87.75062 420.83215L87.75062 420.83215L87.75062 420.83215C 86.789345 420.83215 85.9654 421.2441 85.41609 421.93076" />    </clipPath>
    <clipPath  id="8">

    <path id=""  clip-rule="evenodd" transform="matrix(1 0 0 1 0 0)"  d="M54.51799 391.85663C 53.282063 392.95523 53.144737 394.74045 54.243336 395.97638L54.243336 395.97638L54.243336 395.97638C 54.792637 396.66302 55.61659 397.07498 56.440533 397.07498L56.440533 397.07498L56.440533 397.07498C 57.127155 397.07498 57.81378 396.80032 58.363083 396.38834L58.363083 396.38834L58.363083 396.38834C 59.59901 395.28976 59.736332 393.50452 58.637733 392.2686L58.637733 392.2686L58.637733 392.2686C 57.539135 391.03265 55.75391 390.89532 54.51799 391.99396z" />    </clipPath>
    <clipPath  id="9">

    <path id=""  clip-rule="evenodd" transform="matrix(1 0 0 1 0 0)"  d="M54.51799 391.85663C 53.282063 392.95523 53.144737 394.74045 54.243336 395.97638L54.243336 395.97638L54.243336 395.97638C 54.792637 396.66302 55.61659 397.07498 56.440533 397.07498L56.440533 397.07498L56.440533 397.07498C 57.127155 397.07498 57.81378 396.80032 58.363083 396.38834L58.363083 396.38834L58.363083 396.38834C 59.59901 395.28976 59.736332 393.50452 58.637733 392.2686L58.637733 392.2686L58.637733 392.2686C 57.539135 391.03265 55.75391 390.89532 54.51799 391.99396" />    </clipPath>
    <clipPath  id="10">

    <path id=""  clip-rule="evenodd" transform="matrix(1 0 0 1 0 0)"  d="M13.18319 192.04889C 13.595165 190.40097 12.633892 188.89041 11.123317 188.3411L11.123317 188.3411L11.123317 188.3411C 9.475418 187.92914 7.9648438 188.89038 7.415544 190.40097L7.415544 190.40097L7.415544 190.40097C 7.003569 192.04889 7.9648438 193.55945 9.475417 194.10876L9.475417 194.10876L9.475417 194.10876L9.475417 194.10876L10.299367 194.10876L10.299367 194.10876L10.299367 194.10876C 11.672616 194.10876 12.771215 193.28479 13.183189 191.91156z" />    </clipPath>
    <clipPath  id="11">

    <path id=""  clip-rule="evenodd" transform="matrix(1 0 0 1 0 0)"  d="M13.18319 192.04889C 13.595165 190.40097 12.633892 188.89041 11.123317 188.3411L11.123317 188.3411L11.123317 188.3411C 9.475418 187.92914 7.9648438 188.89038 7.415544 190.40097L7.415544 190.40097L7.415544 190.40097C 7.003569 192.04889 7.9648438 193.55945 9.475417 194.10876L9.475417 194.10876L9.475417 194.10876L9.475417 194.10876L10.299367 194.10876L10.299367 194.10876L10.299367 194.10876C 11.672616 194.10876 12.771215 193.28479 13.183189 191.91156" />    </clipPath>
    <clipPath  id="12">

    <path id=""  clip-rule="evenodd" transform="matrix(1 0 0 1 0 0)"  d="M3.9824224 274.1692C 2.3345234 274.44385 1.2359241 275.9544 1.510574 277.465L1.510574 277.465L1.510574 277.465C 1.6478988 278.9756 3.021148 280.07416 4.3943973 280.07416L4.3943973 280.07416L4.3943973 280.07416L4.3943973 280.07416L4.8063717 280.07416L4.8063717 280.07416L4.8063717 280.07416C 6.4210186 279.92877 7.633089 278.53488 7.55287 276.9157L7.55287 276.9157L7.55287 276.9157C 7.4074726 275.30103 6.0135913 274.089 4.3943973 274.1692L4.3943973 274.1692L4.3943973 274.1692L4.3943973 274.1692L4.1197476 274.1692L4.1197476 274.1692L4.1197476 274.1692L4.1197476 274.1692L4.1197476 274.1692z" />    </clipPath>
    <clipPath  id="13">

    <path id=""  clip-rule="evenodd" transform="matrix(1 0 0 1 0 0)"  d="M3.9824224 274.1692C 2.3345234 274.44385 1.2359241 275.9544 1.510574 277.465L1.510574 277.465L1.510574 277.465C 1.6478988 278.9756 3.021148 280.07416 4.3943973 280.07416L4.3943973 280.07416L4.3943973 280.07416L4.3943973 280.07416L4.8063717 280.07416L4.8063717 280.07416L4.8063717 280.07416C 6.4210186 279.92877 7.633089 278.53488 7.55287 276.9157L7.55287 276.9157L7.55287 276.9157C 7.4074726 275.30103 6.0135913 274.089 4.3943973 274.1692L4.3943973 274.1692L4.3943973 274.1692L4.3943973 274.1692L4.1197476 274.1692" />    </clipPath>
    <clipPath  id="14">

    <path id=""  clip-rule="evenodd" transform="matrix(1 0 0 1 0 0)"  d="M3.021148 236.81683C 3.7997465 236.82074 4.543413 236.49396 5.067162 235.91785L5.067162 235.91785L5.067162 235.91785C 5.590911 235.34174 5.845516 234.57037 5.7676463 233.79565L5.7676463 233.79565L5.7676463 233.79565C 5.771548 233.01709 5.444798 232.27338 4.8686748 231.74963L4.8686748 231.74963L4.8686748 231.74963C 4.2925515 231.22589 3.5212016 230.97131 2.7464983 231.0492L2.7464983 231.0492L2.7464983 231.0492C 1.9678998 231.04529 1.2242332 231.37201 0.70048434 231.94815L0.70048434 231.94815L0.70048434 231.94815C 0.17673543 232.52429 -0.0778702 233.29562 0 234.07031L0 234.07031L0 234.07031C 3.8197613E-06 235.58716 1.229652 236.81683 2.7464983 236.81683L2.7464983 236.81683L2.7464983 236.81683L2.7464983 236.81683L3.0211482 236.81683z" />    </clipPath>
    <clipPath  id="15">

    <path id=""  clip-rule="evenodd" transform="matrix(1 0 0 1 0 0)"  d="M3.021148 236.81683C 3.7997465 236.82074 4.543413 236.49396 5.067162 235.91785L5.067162 235.91785L5.067162 235.91785C 5.590911 235.34174 5.845516 234.57037 5.7676463 233.79565L5.7676463 233.79565L5.7676463 233.79565C 5.771548 233.01709 5.444798 232.27338 4.8686748 231.74963L4.8686748 231.74963L4.8686748 231.74963C 4.2925515 231.22589 3.5212016 230.97131 2.7464983 231.0492L2.7464983 231.0492L2.7464983 231.0492C 1.9678998 231.04529 1.2242332 231.37201 0.70048434 231.94815L0.70048434 231.94815L0.70048434 231.94815C 0.17673543 232.52429 -0.0778702 233.29562 0 234.07031L0 234.07031L0 234.07031C 3.8197613E-06 235.58716 1.229652 236.81683 2.7464983 236.81683L2.7464983 236.81683L2.7464983 236.81683L2.7464983 236.81683L3.0211482 236.81683" />    </clipPath>
    <clipPath  id="16">

    <path id=""  clip-rule="evenodd" transform="matrix(1 0 0 1 0 0)"  d="M30.211481 356.15216C 28.700909 356.8388 28.014284 358.62402 28.838232 360.1346L28.838232 360.1346L28.838232 360.1346C 29.524857 361.6452 31.31008 362.33182 32.820652 361.50787L32.820652 361.50787L32.820652 361.50787C 32.95798 361.50787 33.095303 361.37054 33.232628 361.23325L33.232628 361.23325L33.232628 361.23325C 34.743202 360.5466 35.42983 358.76138 34.60588 357.2508L34.60588 357.2508L34.60588 357.2508C 33.919254 355.7402 32.13403 355.0536 30.623457 355.87753L30.623457 355.87753L30.623457 355.87753C 30.486132 355.87753 30.348808 356.01486 30.211481 356.15216z" />    </clipPath>
    <clipPath  id="17">

    <path id=""  clip-rule="evenodd" transform="matrix(1 0 0 1 0 0)"  d="M30.211481 356.15216C 28.700909 356.8388 28.014284 358.62402 28.838232 360.1346L28.838232 360.1346L28.838232 360.1346C 29.524857 361.6452 31.31008 362.33182 32.820652 361.50787L32.820652 361.50787L32.820652 361.50787C 32.95798 361.50787 33.095303 361.37054 33.232628 361.23325L33.232628 361.23325L33.232628 361.23325C 34.743202 360.5466 35.42983 358.76138 34.60588 357.2508L34.60588 357.2508L34.60588 357.2508C 33.919254 355.7402 32.13403 355.0536 30.623457 355.87753L30.623457 355.87753L30.623457 355.87753C 30.486132 355.87753 30.348808 356.01486 30.211481 356.15216" />    </clipPath>
    <clipPath  id="18">

    <path id=""  clip-rule="evenodd" transform="matrix(1 0 0 1 0 0)"  d="M165.47652 459.5578L165.47652 459.5578L165.47652 459.5578L165.47652 459.5578L165.47652 459.5578L165.47652 459.5578C 163.82863 459.28317 162.31805 460.38177 162.0434 461.89233L162.0434 461.89233L162.0434 461.89233C 161.76874 463.26562 162.5927 464.77615 163.96594 465.18814L163.96594 465.18814L163.96594 465.18814L163.96594 465.18814L164.65257 465.18814L164.65257 465.18814L164.65257 465.18814C 166.02582 465.18814 167.26175 464.22687 167.5364 462.99094L167.5364 462.99094L167.5364 462.99094C 167.94838 461.48035 166.9871 459.83246 165.47652 459.4205L165.47652 459.4205L165.47652 459.4205L165.47652 459.4205L165.47652 459.4205z" />    </clipPath>
    <clipPath  id="19">

    <path id=""  clip-rule="evenodd" transform="matrix(1 0 0 1 0 0)"  d="M165.47652 459.5578L165.47652 459.5578L165.47652 459.5578L165.47652 459.5578L165.47652 459.5578L165.47652 459.5578C 163.82863 459.28317 162.31805 460.38177 162.0434 461.89233L162.0434 461.89233L162.0434 461.89233C 161.76874 463.26562 162.5927 464.77615 163.96594 465.18814L163.96594 465.18814L163.96594 465.18814L163.96594 465.18814L164.65257 465.18814L164.65257 465.18814L164.65257 465.18814C 166.02582 465.18814 167.26175 464.22687 167.5364 462.99094L167.5364 462.99094L167.5364 462.99094C 167.94838 461.48035 166.9871 459.83246 165.47652 459.4205" />    </clipPath>
    <clipPath  id="20">

    <path id=""  clip-rule="evenodd" transform="matrix(1 0 0 1 0 0)"  d="M49.024994 117.34415C 50.67289 117.34415 52.04614 115.97089 52.04614 114.323L52.04614 114.323L52.04614 114.323C 52.04614 112.67508 50.67289 111.30185 49.024994 111.30185L49.024994 111.30185L49.024994 111.30185C 47.377094 111.30185 46.003845 112.67508 46.003845 114.323L46.003845 114.323L46.003845 114.323C 46.003845 115.28427 46.41582 116.108215 47.102444 116.65753L47.102444 116.65753L47.102444 116.65753C 47.651745 117.06949 48.201042 117.34415 48.88767 117.34415z" />    </clipPath>
    <clipPath  id="21">

    <path id=""  clip-rule="evenodd" transform="matrix(1 0 0 1 0 0)"  d="M49.024994 117.34415C 50.67289 117.34415 52.04614 115.97089 52.04614 114.323L52.04614 114.323L52.04614 114.323C 52.04614 112.67508 50.67289 111.30185 49.024994 111.30185L49.024994 111.30185L49.024994 111.30185C 47.377094 111.30185 46.003845 112.67508 46.003845 114.323L46.003845 114.323L46.003845 114.323C 46.003845 115.28427 46.41582 116.108215 47.102444 116.65753L47.102444 116.65753L47.102444 116.65753C 47.651745 117.06949 48.201042 117.34415 48.88767 117.34415" />    </clipPath>
    <clipPath  id="22">

    <path id=""  clip-rule="evenodd" transform="matrix(1 0 0 1 0 0)"  d="M114.25432 61.178253C 114.25432 61.178253 115.21559 61.040924 115.76489 60.766266L115.76489 60.766266L115.76489 60.766266C 117.13814 59.94232 117.55012 58.157104 116.726166 56.783844L116.726166 56.783844L116.726166 56.783844C 115.902214 55.410614 114.117 54.998627 112.74374 55.82257L112.74374 55.82257L112.74374 55.82257C 111.37048 56.646515 110.95852 58.431763 111.78247 59.804993L111.78247 59.804993L111.78247 59.804993C 112.33177 60.628937 113.293045 61.178253 114.25432 61.178253z" />    </clipPath>
    <clipPath  id="23">

    <path id=""  clip-rule="evenodd" transform="matrix(1 0 0 1 0 0)"  d="M114.25432 61.178253C 114.25432 61.178253 115.21559 61.040924 115.76489 60.766266L115.76489 60.766266L115.76489 60.766266C 117.13814 59.94232 117.55012 58.157104 116.726166 56.783844L116.726166 56.783844L116.726166 56.783844C 115.902214 55.410614 114.117 54.998627 112.74374 55.82257L112.74374 55.82257L112.74374 55.82257C 111.37048 56.646515 110.95852 58.431763 111.78247 59.804993L111.78247 59.804993L111.78247 59.804993C 112.33177 60.628937 113.293045 61.178253 114.25432 61.178253" />    </clipPath>
    <clipPath  id="24">

    <path id=""  clip-rule="evenodd" transform="matrix(1 0 0 1 0 0)"  d="M78.82449 86.03406C 80.4724 86.03406 81.84564 84.6608 81.84564 83.01291L81.84564 83.01291L81.84564 83.01291C 81.84564 81.36502 80.4724 79.99176 78.82449 79.99176L78.82449 79.99176L78.82449 79.99176C 77.17659 79.99176 75.803345 81.36502 75.803345 83.01291L75.803345 83.01291L75.803345 83.01291C 75.803345 83.699524 76.077995 84.38617 76.48997 84.935455L76.48997 84.935455L76.48997 84.935455C 77.039276 85.62207 77.86321 86.03406 78.687164 86.03406z" />    </clipPath>
    <clipPath  id="25">

    <path id=""  clip-rule="evenodd" transform="matrix(1 0 0 1 0 0)"  d="M78.82449 86.03406C 80.4724 86.03406 81.84564 84.6608 81.84564 83.01291L81.84564 83.01291L81.84564 83.01291C 81.84564 81.36502 80.4724 79.99176 78.82449 79.99176L78.82449 79.99176L78.82449 79.99176C 77.17659 79.99176 75.803345 81.36502 75.803345 83.01291L75.803345 83.01291L75.803345 83.01291C 75.803345 83.699524 76.077995 84.38617 76.48997 84.935455L76.48997 84.935455L76.48997 84.935455C 77.039276 85.62207 77.86321 86.03406 78.687164 86.03406" />    </clipPath>
    <clipPath  id="26">

    <path id=""  clip-rule="evenodd" transform="matrix(1 0 0 1 0 0)"  d="M125.65229 444.45206C 124.141716 443.6281 122.35649 444.31473 121.66986 445.68796L121.66986 445.68796L121.66986 445.68796C 120.84591 447.19855 121.53253 448.98376 122.905785 449.6704L122.905785 449.6704L122.905785 449.6704C 123.317764 449.94504 123.86706 449.94504 124.27903 449.94504L124.27903 449.94504L124.27903 449.94504C 125.92693 449.94504 127.30018 448.70914 127.30018 447.06122L127.30018 447.06122L127.30018 447.06122C 127.262566 445.92242 126.639404 444.88382 125.652275 444.31473L125.652275 444.31473L125.652275 444.31473L125.652275 444.31473L125.652275 444.31473z" />    </clipPath>
    <clipPath  id="27">

    <path id=""  clip-rule="evenodd" transform="matrix(1 0 0 1 0 0)"  d="M125.65229 444.45206C 124.141716 443.6281 122.35649 444.31473 121.66986 445.68796L121.66986 445.68796L121.66986 445.68796C 120.84591 447.19855 121.53253 448.98376 122.905785 449.6704L122.905785 449.6704L122.905785 449.6704C 123.317764 449.94504 123.86706 449.94504 124.27903 449.94504L124.27903 449.94504L124.27903 449.94504C 125.92693 449.94504 127.30018 448.70914 127.30018 447.06122L127.30018 447.06122L127.30018 447.06122C 127.262566 445.92242 126.639404 444.88382 125.652275 444.31473" />    </clipPath>
    <clipPath  id="28">

    <path id=""  clip-rule="evenodd" transform="matrix(1 0 0 1 0 0)"  d="M13.18319 316.32794C 11.672617 316.87723 10.848667 318.52512 11.397966 320.17303L11.397966 320.17303L11.397966 320.17303C 11.809941 321.40897 12.90854 322.09558 14.1444645 322.09558L14.1444645 322.09558L14.1444645 322.09558C 14.419114 322.09558 14.831089 322.09558 15.105739 321.95825L15.105739 321.95825L15.105739 321.95825C 16.616312 321.54626 17.577587 319.89838 17.165613 318.25046L17.165613 318.25046L17.165613 318.25046C 16.75364 316.7399 15.105739 315.77863 13.457839 316.19058L13.457839 316.19058L13.457839 316.19058L13.457839 316.19058L13.18319 316.19058L13.18319 316.19058L13.18319 316.19058L13.18319 316.19058L13.18319 316.19058z" />    </clipPath>
    <clipPath  id="29">

    <path id=""  clip-rule="evenodd" transform="matrix(1 0 0 1 0 0)"  d="M13.18319 316.32794C 11.672617 316.87723 10.848667 318.52512 11.397966 320.17303L11.397966 320.17303L11.397966 320.17303C 11.809941 321.40897 12.90854 322.09558 14.1444645 322.09558L14.1444645 322.09558L14.1444645 322.09558C 14.419114 322.09558 14.831089 322.09558 15.105739 321.95825L15.105739 321.95825L15.105739 321.95825C 16.616312 321.54626 17.577587 319.89838 17.165613 318.25046L17.165613 318.25046L17.165613 318.25046C 16.75364 316.7399 15.105739 315.77863 13.457839 316.19058L13.457839 316.19058L13.457839 316.19058L13.457839 316.19058L13.18319 316.19058" />    </clipPath>
    <clipPath  id="30">

    <path id=""  clip-rule="evenodd" transform="matrix(1 0 0 1 0 0)"  d="M26.778358 238.3274C 29.112885 238.3274 31.03543 236.26752 30.898108 233.79565L30.898108 233.79565L30.898108 233.79565C 30.760784 231.32379 28.838234 229.53857 26.366385 229.6759L26.366385 229.6759L26.366385 229.6759C 24.031858 229.6759 22.109312 231.73578 22.246635 234.20764L22.246635 234.20764L22.246635 234.20764C 22.246635 236.40482 24.169186 238.3274 26.366385 238.3274L26.366385 238.3274L26.366385 238.3274L26.366385 238.3274L26.641033 238.3274z" />    </clipPath>
    <clipPath  id="31">

    <path id=""  clip-rule="evenodd" transform="matrix(1 0 0 1 0 0)"  d="M26.778358 238.3274C 29.112885 238.3274 31.03543 236.26752 30.898108 233.79565L30.898108 233.79565L30.898108 233.79565C 30.760784 231.32379 28.838234 229.53857 26.366385 229.6759L26.366385 229.6759L26.366385 229.6759C 24.031858 229.6759 22.109312 231.73578 22.246635 234.20764L22.246635 234.20764L22.246635 234.20764C 22.246635 236.40482 24.169186 238.3274 26.366385 238.3274L26.366385 238.3274L26.366385 238.3274L26.366385 238.3274L26.641033 238.3274" />    </clipPath>
    <clipPath  id="32">

    <path id=""  clip-rule="evenodd" transform="matrix(1 0 0 1 0 0)"  d="M70.0357 117.89343C 70.85965 118.58005 71.82092 118.854706 72.7822 118.854706L72.7822 118.854706L72.7822 118.854706C 74.15545 118.854706 75.39137 118.16809 76.35265 117.20679L76.35265 117.20679L76.35265 117.20679C 77.86323 115.28424 77.58858 112.40042 75.5287 110.88986L75.5287 110.88986L75.5287 110.88986C 73.60615 109.37927 70.72233 109.65393 69.211754 111.713806L69.211754 111.713806L69.211754 111.713806L69.211754 111.713806L69.211754 111.713806L69.211754 111.713806L69.211754 111.713806C 67.70118 113.63635 67.97583 116.38287 69.89838 117.89343z" />    </clipPath>
    <clipPath  id="33">

    <path id=""  clip-rule="evenodd" transform="matrix(1 0 0 1 0 0)"  d="M70.0357 117.89343C 70.85965 118.58005 71.82092 118.854706 72.7822 118.854706L72.7822 118.854706L72.7822 118.854706C 74.15545 118.854706 75.39137 118.16809 76.35265 117.20679L76.35265 117.20679L76.35265 117.20679C 77.86323 115.28424 77.58858 112.40042 75.5287 110.88986L75.5287 110.88986L75.5287 110.88986C 73.60615 109.37927 70.72233 109.65393 69.211754 111.713806L69.211754 111.713806L69.211754 111.713806L69.211754 111.713806L69.211754 111.713806L69.211754 111.713806L69.211754 111.713806C 67.70118 113.63635 67.97583 116.38287 70.035706 117.89343" />    </clipPath>
    <clipPath  id="34">

    <path id=""  clip-rule="evenodd" transform="matrix(1 0 0 1 0 0)"  d="M32.546 276.50372C 32.27135 274.03186 29.936829 272.38394 27.602306 272.6586L27.602306 272.6586L27.602306 272.6586C 25.130457 272.93326 23.482557 275.26776 23.757208 277.6023L23.757208 277.6023L23.757208 277.6023C 24.031857 279.7995 25.954407 281.4474 28.151606 281.4474L28.151606 281.4474L28.151606 281.4474L28.151606 281.4474L28.700905 281.4474L28.700905 281.4474L28.700905 281.4474C 31.172752 281.17273 32.820652 278.97556 32.546 276.50372z" />    </clipPath>
    <clipPath  id="35">

    <path id=""  clip-rule="evenodd" transform="matrix(1 0 0 1 0 0)"  d="M32.546 276.50372C 32.27135 274.03186 29.936829 272.38394 27.602306 272.6586L27.602306 272.6586L27.602306 272.6586C 25.130457 272.93326 23.482557 275.26776 23.757208 277.6023L23.757208 277.6023L23.757208 277.6023C 24.031857 279.7995 25.954407 281.4474 28.151606 281.4474L28.151606 281.4474L28.151606 281.4474L28.151606 281.4474L28.700905 281.4474L28.700905 281.4474L28.700905 281.4474C 31.172752 281.17273 32.820652 278.97556 32.546 276.50372" />    </clipPath>
    <clipPath  id="36">

    <path id=""  clip-rule="evenodd" transform="matrix(1 0 0 1 0 0)"  d="M47.651745 154.83383L47.651745 154.83383L47.651745 154.83383L49.711617 155.38315L49.711617 155.38315L49.711617 155.38315C 52.183464 155.38315 54.106014 153.32327 54.106014 150.98877L54.106014 150.98877L54.106014 150.98877C 54.106014 148.5169 52.04614 146.59436 49.711617 146.59436L49.711617 146.59436L49.711617 146.59436C 47.23977 146.59436 45.31722 148.65424 45.31722 150.98877L45.31722 150.98877L45.31722 150.98877C 45.31722 152.63666 46.278492 154.14722 47.789066 154.97119z" />    </clipPath>
    <clipPath  id="37">

    <path id=""  clip-rule="evenodd" transform="matrix(1 0 0 1 0 0)"  d="M47.651745 154.83383L47.651745 154.83383L47.651745 154.83383L49.711617 155.38315L49.711617 155.38315L49.711617 155.38315C 52.183464 155.38315 54.106014 153.32327 54.106014 150.98877L54.106014 150.98877L54.106014 150.98877C 54.106014 148.5169 52.04614 146.59436 49.711617 146.59436L49.711617 146.59436L49.711617 146.59436C 47.23977 146.59436 45.31722 148.65424 45.31722 150.98877L45.31722 150.98877L45.31722 150.98877C 45.31722 152.63666 46.278492 154.14722 47.789066 154.97119" />    </clipPath>
    <clipPath  id="38">

    <path id=""  clip-rule="evenodd" transform="matrix(1 0 0 1 0 0)"  d="M32.95798 195.482C 35.292503 196.16864 37.76435 194.65805 38.450977 192.32355L38.450977 192.32355L38.450977 192.32355C 39.137604 189.98901 37.627026 187.51715 35.292503 186.83054L35.292503 186.83054L35.292503 186.83054C 32.95798 186.14392 30.486134 187.51715 29.799507 189.98901L29.799507 189.98901L29.799507 189.98901C 29.11288 192.32352 30.623455 194.79535 32.95798 195.482z" />    </clipPath>
    <clipPath  id="39">

    <path id=""  clip-rule="evenodd" transform="matrix(1 0 0 1 0 0)"  d="M32.95798 195.482C 35.292503 196.16864 37.76435 194.65805 38.450977 192.32355L38.450977 192.32355L38.450977 192.32355C 39.137604 189.98901 37.627026 187.51715 35.292503 186.83054L35.292503 186.83054L35.292503 186.83054C 32.95798 186.14392 30.486134 187.51715 29.799507 189.98901L29.799507 189.98901L29.799507 189.98901C 29.11288 192.32352 30.623455 194.79535 32.95798 195.482" />    </clipPath>
    <clipPath  id="40">

    <path id=""  clip-rule="evenodd" transform="matrix(1 0 0 1 0 0)"  d="M177.4238 44.83658C 177.4238 44.83658 178.38507 44.83658 178.79704 44.56192L178.79704 44.56192L178.79704 44.56192C 181.13156 43.737976 182.36748 41.266144 181.68086 38.93161L181.68086 38.93161L181.68086 38.93161C 180.85692 36.597076 178.38507 35.361176 176.05055 36.04779L176.05055 36.04779L176.05055 36.04779C 173.71603 36.871735 172.4801 39.343597 173.30406 41.6781L173.30406 41.6781L173.30406 41.6781C 173.85335 43.46335 175.63857 44.69925 177.56113 44.69925z" />    </clipPath>
    <clipPath  id="41">

    <path id=""  clip-rule="evenodd" transform="matrix(1 0 0 1 0 0)"  d="M177.4238 44.83658C 177.4238 44.83658 178.38507 44.83658 178.79704 44.56192L178.79704 44.56192L178.79704 44.56192C 181.13156 43.737976 182.36748 41.266144 181.68086 38.93161L181.68086 38.93161L181.68086 38.93161C 180.85692 36.597076 178.38507 35.361176 176.05055 36.04779L176.05055 36.04779L176.05055 36.04779C 173.71603 36.871735 172.4801 39.343597 173.30406 41.6781L173.30406 41.6781L173.30406 41.6781C 173.85335 43.46335 175.63857 44.69925 177.56113 44.69925" />    </clipPath>
    <clipPath  id="42">

    <path id=""  clip-rule="evenodd" transform="matrix(1 0 0 1 0 0)"  d="M114.25432 420.4202C 113.32694 419.70636 112.15313 419.39194 110.9931 419.54663L110.9931 419.54663L110.9931 419.54663C 109.83306 419.7013 108.78264 420.3123 108.0747 421.24414L108.0747 421.24414L108.0747 421.24414C 106.701454 423.1667 106.9761 426.05054 108.89865 427.42377L108.89865 427.42377L108.89865 427.42377C 110.832634 428.9027 113.59935 428.5338 115.07827 426.59982L115.07827 426.59982L115.07827 426.59982C 116.5572 424.66586 116.18831 421.89914 114.25432 420.4202" />    </clipPath>
    <clipPath  id="43">

    <path id=""  clip-rule="evenodd" transform="matrix(1 0 0 1 0 0)"  d="M114.25432 420.4202C 113.32694 419.70636 112.15313 419.39194 110.9931 419.54663L110.9931 419.54663L110.9931 419.54663C 109.83306 419.7013 108.78264 420.3123 108.0747 421.24414L108.0747 421.24414L108.0747 421.24414C 106.701454 423.1667 106.9761 426.05054 108.89865 427.42377L108.89865 427.42377L108.89865 427.42377C 110.832634 428.9027 113.59935 428.5338 115.07827 426.59982L115.07827 426.59982L115.07827 426.59982C 116.5572 424.66586 116.18831 421.89914 114.25432 420.4202" />    </clipPath>
    <clipPath  id="44">

    <path id=""  clip-rule="evenodd" transform="matrix(1 0 0 1 0 0)"  d="M36.3911 314.9547C 34.05658 315.77866 32.820652 318.25052 33.50728 320.58502L33.50728 320.58502L33.50728 320.58502C 34.05658 322.37024 35.8418 323.60617 37.76435 323.60617L37.76435 323.60617L37.76435 323.60617C 38.176327 323.60617 38.725624 323.60617 39.1376 323.3315L39.1376 323.3315L39.1376 323.3315C 41.450798 322.53516 42.680447 320.01437 41.884106 317.7012L41.884106 317.7012L41.884106 317.7012C 41.087757 315.388 38.566975 314.15833 36.253777 314.95468L36.253777 314.95468L36.253777 314.95468L36.253777 314.95468L36.253777 314.95468z" />    </clipPath>
    <clipPath  id="45">

    <path id=""  clip-rule="evenodd" transform="matrix(1 0 0 1 0 0)"  d="M36.3911 314.9547C 34.05658 315.77866 32.820652 318.25052 33.50728 320.58502L33.50728 320.58502L33.50728 320.58502C 34.05658 322.37024 35.8418 323.60617 37.76435 323.60617L37.76435 323.60617L37.76435 323.60617C 38.176327 323.60617 38.725624 323.60617 39.1376 323.3315L39.1376 323.3315L39.1376 323.3315C 41.450798 322.53516 42.680447 320.01437 41.884106 317.7012L41.884106 317.7012L41.884106 317.7012C 41.087757 315.388 38.566975 314.15833 36.253777 314.95468" />    </clipPath>
    <clipPath  id="46">

    <path id=""  clip-rule="evenodd" transform="matrix(1 0 0 1 0 0)"  d="M138.01154 62.688812C 140.4834 62.688812 142.54326 60.766266 142.54326 58.294434L142.54326 58.294434L142.54326 58.294434C 142.54326 55.82257 140.62071 53.762695 138.14886 53.762695L138.14886 53.762695L138.14886 53.762695C 135.67703 53.762695 133.61714 55.68524 133.61714 58.157104L133.61714 58.157104L133.61714 58.157104C 133.61714 58.98105 133.75447 59.667664 134.16646 60.35431L134.16646 60.35431L134.16646 60.35431C 134.98244 61.721252 136.42232 62.59546 138.01155 62.688812" />    </clipPath>
    <clipPath  id="47">

    <path id=""  clip-rule="evenodd" transform="matrix(1 0 0 1 0 0)"  d="M138.01154 62.688812C 140.4834 62.688812 142.54326 60.766266 142.54326 58.294434L142.54326 58.294434L142.54326 58.294434C 142.54326 55.82257 140.62071 53.762695 138.14886 53.762695L138.14886 53.762695L138.14886 53.762695C 135.67703 53.762695 133.61714 55.68524 133.61714 58.157104L133.61714 58.157104L133.61714 58.157104C 133.61714 58.98105 133.75447 59.667664 134.16646 60.35431L134.16646 60.35431L134.16646 60.35431C 134.98244 61.721252 136.42232 62.59546 138.01155 62.688812" />    </clipPath>
    <clipPath  id="48">

    <path id=""  clip-rule="evenodd" transform="matrix(1 0 0 1 0 0)"  d="M150.09613 443.07883C 147.89894 441.84293 145.28976 442.66687 144.05383 444.86404L144.05383 444.86404L144.05383 444.86404C 142.81792 447.06122 143.64186 449.67044 145.83905 450.90634L145.83905 450.90634L145.83905 450.90634C 145.83905 450.90634 145.97638 450.90634 146.11371 451.04367L146.11371 451.04367L146.11371 451.04367C 146.66301 451.3183 147.34962 451.593 148.17357 451.593L148.17357 451.593L148.17357 451.593C 150.64543 451.593 152.7053 449.5331 152.7053 447.19858L152.7053 447.19858L152.7053 447.19858C 152.7053 445.5507 151.74403 444.0401 150.23344 443.21616z" />    </clipPath>
    <clipPath  id="49">

    <path id=""  clip-rule="evenodd" transform="matrix(1 0 0 1 0 0)"  d="M150.09613 443.07883C 147.89894 441.84293 145.28976 442.66687 144.05383 444.86404L144.05383 444.86404L144.05383 444.86404C 142.81792 447.06122 143.64186 449.67044 145.83905 450.90634L145.83905 450.90634L145.83905 450.90634C 145.83905 450.90634 145.97638 450.90634 146.11371 451.04367L146.11371 451.04367L146.11371 451.04367C 146.66301 451.3183 147.34962 451.593 148.17357 451.593L148.17357 451.593L148.17357 451.593C 150.64543 451.593 152.7053 449.5331 152.7053 447.19858L152.7053 447.19858L152.7053 447.19858C 152.7053 445.5507 151.74403 444.0401 150.23344 443.21616" />    </clipPath>
    <clipPath  id="50">

    <path id=""  clip-rule="evenodd" transform="matrix(1 0 0 1 0 0)"  d="M77.31392 390.758C 75.39137 392.2686 75.25404 395.1524 76.76462 396.93762L76.76462 396.93762L76.76462 396.93762C 78.27519 398.86017 81.02169 398.99747 82.944244 397.48694L82.944244 397.48694L82.944244 397.48694C 84.81523 395.8813 85.0593 393.0745 83.493546 391.16998L83.493546 391.16998L83.493546 391.16998C 81.8879 389.29898 79.081085 389.0549 77.176605 390.6207L77.176605 390.6207L77.176605 390.6207L77.176605 390.6207L77.176605 390.6207z" />    </clipPath>
    <clipPath  id="51">

    <path id=""  clip-rule="evenodd" transform="matrix(1 0 0 1 0 0)"  d="M77.31392 390.758C 75.39137 392.2686 75.25404 395.1524 76.76462 396.93762L76.76462 396.93762L76.76462 396.93762C 78.27519 398.86017 81.02169 398.99747 82.944244 397.48694L82.944244 397.48694L82.944244 397.48694C 84.81523 395.8813 85.0593 393.0745 83.493546 391.16998L83.493546 391.16998L83.493546 391.16998C 81.8879 389.29898 79.081085 389.0549 77.176605 390.6207" />    </clipPath>
    <clipPath  id="52">

    <path id=""  clip-rule="evenodd" transform="matrix(1 0 0 1 0 0)"  d="M102.58171 87.54462C 103.680305 87.54462 104.64159 87.13266 105.46552 86.446045L105.46552 86.446045L105.46552 86.446045C 107.294525 84.80115 107.47736 81.99756 105.8775 80.12909L105.8775 80.12909L105.8775 80.12909C 104.232635 78.30008 101.42904 78.11725 99.56056 79.7171L99.56056 79.7171L99.56056 79.7171C 97.73156 81.36197 97.54872 84.16559 99.14858 86.03406L99.14858 86.03406L99.14858 86.03406C 99.972534 86.99533 101.20846 87.54462 102.58171 87.54462z" />    </clipPath>
    <clipPath  id="53">

    <path id=""  clip-rule="evenodd" transform="matrix(1 0 0 1 0 0)"  d="M102.58171 87.54462C 103.680305 87.54462 104.64159 87.13266 105.46552 86.446045L105.46552 86.446045L105.46552 86.446045C 107.294525 84.80115 107.47736 81.99756 105.8775 80.12909L105.8775 80.12909L105.8775 80.12909C 104.232635 78.30008 101.42904 78.11725 99.56056 79.7171L99.56056 79.7171L99.56056 79.7171C 97.73156 81.36197 97.54872 84.16559 99.14858 86.03406L99.14858 86.03406L99.14858 86.03406C 99.972534 86.99533 101.20846 87.54462 102.58171 87.54462" />    </clipPath>
    <clipPath  id="54">

    <path id=""  clip-rule="evenodd" transform="matrix(1 0 0 1 0 0)"  d="M189.6457 458.18454C 187.31119 457.63525 184.83934 459.1458 184.29004 461.48035L184.29004 461.48035L184.29004 461.48035C 183.74074 463.81488 185.11398 466.14938 187.4485 466.83603L187.4485 466.83603L187.4485 466.83603L187.4485 466.83603L187.4485 466.83603L187.4485 466.83603L187.4485 466.83603C 187.4485 466.83603 188.13513 466.97333 188.54712 466.97333L188.54712 466.97333L188.54712 466.97333C 191.01897 466.97333 192.94151 465.0508 192.94151 462.57895L192.94151 462.57895L192.94151 462.57895C 192.94151 460.51907 191.56825 458.73386 189.6457 458.32187L189.6457 458.32187L189.6457 458.32187L189.6457 458.32187L189.6457 458.32187z" />    </clipPath>
    <clipPath  id="55">

    <path id=""  clip-rule="evenodd" transform="matrix(1 0 0 1 0 0)"  d="M189.6457 458.18454C 187.31119 457.63525 184.83934 459.1458 184.29004 461.48035L184.29004 461.48035L184.29004 461.48035C 183.74074 463.81488 185.11398 466.14938 187.4485 466.83603L187.4485 466.83603L187.4485 466.83603L187.4485 466.83603L187.4485 466.83603L187.4485 466.83603L187.4485 466.83603C 187.4485 466.83603 188.13513 466.97333 188.54712 466.97333L188.54712 466.97333L188.54712 466.97333C 191.01897 466.97333 192.94151 465.0508 192.94151 462.57895L192.94151 462.57895L192.94151 462.57895C 192.94151 460.51907 191.56825 458.73386 189.6457 458.32187" />    </clipPath>
    <clipPath  id="56">

    <path id=""  clip-rule="evenodd" transform="matrix(1 0 0 1 0 0)"  d="M53.282066 354.7789C 51.08487 356.01483 50.398243 358.76135 51.63417 360.8212L51.63417 360.8212L51.63417 360.8212C 52.45812 362.19446 53.968693 363.15573 55.479267 363.15573L55.479267 363.15573L55.479267 363.15573C 56.30322 363.15573 56.98984 362.8811 57.676464 362.6064L57.676464 362.6064L57.676464 362.6064C 59.87366 361.3705 60.560287 358.624 59.32436 356.56412L59.32436 356.56412L59.32436 356.56412C 58.088436 354.3669 55.341938 353.68033 53.282066 354.91623L53.282066 354.91623L53.282066 354.91623L53.282066 354.91623L53.282066 354.91623z" />    </clipPath>
    <clipPath  id="57">

    <path id=""  clip-rule="evenodd" transform="matrix(1 0 0 1 0 0)"  d="M53.282066 354.7789C 51.08487 356.01483 50.398243 358.76135 51.63417 360.8212L51.63417 360.8212L51.63417 360.8212C 52.45812 362.19446 53.968693 363.15573 55.479267 363.15573L55.479267 363.15573L55.479267 363.15573C 56.30322 363.15573 56.98984 362.8811 57.676464 362.6064L57.676464 362.6064L57.676464 362.6064C 59.87366 361.3705 60.560287 358.624 59.32436 356.56412L59.32436 356.56412L59.32436 356.56412C 58.088436 354.3669 55.341938 353.68033 53.282066 354.91623" />    </clipPath>
    <clipPath  id="58">

    <path id=""  clip-rule="evenodd" transform="matrix(1 0 0 1 0 0)"  d="M92.00768 120.22797C 93.24361 121.18921 94.8915 121.875854 96.539406 121.738525L96.539406 121.738525L96.539406 121.738525C 98.50612 121.738525 100.392296 120.957245 101.78299 119.56659L101.78299 119.56659L101.78299 119.56659C 103.17367 118.1759 103.954956 116.2897 103.954956 114.323L103.954956 114.323L103.954956 114.323C 103.954956 111.988464 102.85635 109.92859 101.07114 108.55533L101.07114 108.55533L101.07114 108.55533C 97.82896 106.08255 93.20937 106.62961 90.63444 109.79126L90.63444 109.79126L90.63444 109.79126C 88.16167 113.03345 88.70872 117.653015 91.87036 120.22797L91.87036 120.22797L91.87036 120.22797L91.87036 120.22797L91.87036 120.22797z" />    </clipPath>
    <clipPath  id="59">

    <path id=""  clip-rule="evenodd" transform="matrix(1 0 0 1 0 0)"  d="M92.00768 120.22797C 93.24361 121.18921 94.8915 121.875854 96.539406 121.738525L96.539406 121.738525L96.539406 121.738525C 98.50612 121.738525 100.392296 120.957245 101.78299 119.56659L101.78299 119.56659L101.78299 119.56659C 103.17367 118.1759 103.954956 116.2897 103.954956 114.323L103.954956 114.323L103.954956 114.323C 103.954956 111.988464 102.85635 109.92859 101.07114 108.55533L101.07114 108.55533L101.07114 108.55533C 97.82896 106.08255 93.20937 106.62961 90.63444 109.79126L90.63444 109.79126L90.63444 109.79126C 88.16167 113.03345 88.70872 117.653015 91.87036 120.22797" />    </clipPath>
    <clipPath  id="60">

    <path id=""  clip-rule="evenodd" transform="matrix(1 0 0 1 0 0)"  d="M126.33891 90.565765C 128.09808 90.538025 129.79454 89.90793 131.14528 88.78055L131.14528 88.78055L131.14528 88.78055C 134.24806 86.12262 134.6165 81.45575 131.96922 78.34387L131.96922 78.34387L131.96922 78.34387C 129.31131 75.24109 124.644424 74.87262 121.53253 77.5199L121.53253 77.5199L121.53253 77.5199C 118.42975 80.177826 118.06132 84.84473 120.70858 87.956604L120.70858 87.956604L120.70858 87.956604C 122.081825 89.60449 124.14171 90.565765 126.338905 90.565765z" />    </clipPath>
    <clipPath  id="61">

    <path id=""  clip-rule="evenodd" transform="matrix(1 0 0 1 0 0)"  d="M126.33891 90.565765C 128.09808 90.538025 129.79454 89.90793 131.14528 88.78055L131.14528 88.78055L131.14528 88.78055C 134.24806 86.12262 134.6165 81.45575 131.96922 78.34387L131.96922 78.34387L131.96922 78.34387C 129.31131 75.24109 124.644424 74.87262 121.53253 77.5199L121.53253 77.5199L121.53253 77.5199C 118.42975 80.177826 118.06132 84.84473 120.70858 87.956604L120.70858 87.956604L120.70858 87.956604C 122.081825 89.60449 124.14171 90.565765 126.338905 90.565765" />    </clipPath>
    <clipPath  id="62">

    <path id=""  clip-rule="evenodd" transform="matrix(1 0 0 1 0 0)"  d="M198.9838 43.46335C 198.9838 43.46335 200.08241 43.46335 200.6317 43.18869L200.6317 43.18869L200.6317 43.18869C 203.37819 42.227417 204.88878 39.343597 203.9275 36.597076L203.9275 36.597076L203.9275 36.597076C 202.96623 33.850586 200.08241 32.340027 197.33592 33.3013L197.33592 33.3013L197.33592 33.3013C 194.58943 34.262573 193.07884 37.146393 194.04012 39.892883L194.04012 39.892883L194.04012 39.892883C 194.72675 42.090088 196.7866 43.46335 198.98381 43.46335z" />    </clipPath>
    <clipPath  id="63">

    <path id=""  clip-rule="evenodd" transform="matrix(1 0 0 1 0 0)"  d="M198.9838 43.46335C 198.9838 43.46335 200.08241 43.46335 200.6317 43.18869L200.6317 43.18869L200.6317 43.18869C 203.37819 42.227417 204.88878 39.343597 203.9275 36.597076L203.9275 36.597076L203.9275 36.597076C 202.96623 33.850586 200.08241 32.340027 197.33592 33.3013L197.33592 33.3013L197.33592 33.3013C 194.58943 34.262573 193.07884 37.146393 194.04012 39.892883L194.04012 39.892883L194.04012 39.892883C 194.72675 42.090088 196.7866 43.46335 198.98381 43.46335" />    </clipPath>
    <clipPath  id="64">

    <path id=""  clip-rule="evenodd" transform="matrix(1 0 0 1 0 0)"  d="M155.31447 61.86487C 157.36221 65.429474 161.91193 66.65912 165.47652 64.61136L165.47652 64.61136L165.47652 64.61136C 169.04112 62.56363 170.27075 58.013916 168.22302 54.44934L168.22302 54.44934L168.22302 54.44934C 166.17528 50.884735 161.62558 49.65509 158.06096 51.70282L158.06096 51.70282L158.06096 51.70282C 154.49637 53.75058 153.26674 58.300262 155.31447 61.86487" />    </clipPath>
    <clipPath  id="65">

    <path id=""  clip-rule="evenodd" transform="matrix(1 0 0 1 0 0)"  d="M155.31447 61.86487C 157.36221 65.429474 161.91193 66.65912 165.47652 64.61136L165.47652 64.61136L165.47652 64.61136C 169.04112 62.56363 170.27075 58.013916 168.22302 54.44934L168.22302 54.44934L168.22302 54.44934C 166.17528 50.884735 161.62558 49.65509 158.06096 51.70282L158.06096 51.70282L158.06096 51.70282C 154.49637 53.75058 153.26674 58.300262 155.31447 61.86487" />    </clipPath>
    <clipPath  id="66">

    <path id=""  clip-rule="evenodd" transform="matrix(1 0 0 1 0 0)"  d="M109.7226 389.24747C 106.93776 386.21082 102.23306 385.96643 99.14858 388.69815L99.14858 388.69815L99.14858 388.69815C 96.26476 391.3073 95.85279 395.83902 98.32463 398.8602L98.32463 398.8602L98.32463 398.8602C 99.99272 400.92075 102.633415 401.9349 105.25197 401.52057L105.25197 401.52057L105.25197 401.52057C 107.87054 401.10626 110.069145 399.32642 111.019615 396.85153L111.019615 396.85153L111.019615 396.85153C 111.970085 394.37665 111.528015 391.58264 109.859924 389.5221L109.859924 389.5221L109.859924 389.5221C 109.859924 389.5221 109.7226 389.24747 109.58528 389.24747z" />    </clipPath>
    <clipPath  id="67">

    <path id=""  clip-rule="evenodd" transform="matrix(1 0 0 1 0 0)"  d="M109.7226 389.24747C 106.93776 386.21082 102.23306 385.96643 99.14858 388.69815L99.14858 388.69815L99.14858 388.69815C 96.26476 391.3073 95.85279 395.83902 98.32463 398.8602L98.32463 398.8602L98.32463 398.8602C 99.99272 400.92075 102.633415 401.9349 105.25197 401.52057L105.25197 401.52057L105.25197 401.52057C 107.87054 401.10626 110.069145 399.32642 111.019615 396.85153L111.019615 396.85153L111.019615 396.85153C 111.970085 394.37665 111.528015 391.58264 109.859924 389.5221L109.859924 389.5221L109.859924 389.5221C 109.859924 389.5221 109.7226 389.24747 109.58528 389.24747" />    </clipPath>
    <clipPath  id="68">

    <path id=""  clip-rule="evenodd" transform="matrix(1 0 0 1 0 0)"  d="M139.93408 418.0857C 137.82443 416.46667 135.0113 416.0961 132.55437 417.11362L132.55437 417.11362L132.55437 417.11362C 130.09743 418.1311 128.36993 420.38205 128.02264 423.0186L128.02264 423.0186L128.02264 423.0186C 127.67535 425.6551 128.761 428.27664 130.87064 429.89566L130.87064 429.89566L130.87064 429.89566L130.87064 429.89566L130.87064 429.89566L130.87064 429.89566L130.87064 429.89566C 132.434 431.10486 134.41537 431.63992 136.37491 431.38208L136.37491 431.38208L136.37491 431.38208C 138.33444 431.12424 140.10997 430.09482 141.30734 428.5224L141.30734 428.5224L141.30734 428.5224C 143.7801 425.28024 143.23305 420.66064 140.07141 418.0857" />    </clipPath>
    <clipPath  id="69">

    <path id=""  clip-rule="evenodd" transform="matrix(1 0 0 1 0 0)"  d="M139.93408 418.0857C 137.82443 416.46667 135.0113 416.0961 132.55437 417.11362L132.55437 417.11362L132.55437 417.11362C 130.09743 418.1311 128.36993 420.38205 128.02264 423.0186L128.02264 423.0186L128.02264 423.0186C 127.67535 425.6551 128.761 428.27664 130.87064 429.89566L130.87064 429.89566L130.87064 429.89566L130.87064 429.89566L130.87064 429.89566L130.87064 429.89566L130.87064 429.89566C 132.98029 431.51468 135.79341 431.88525 138.25035 430.86774L138.25035 430.86774L138.25035 430.86774C 140.70729 429.85025 142.43478 427.5993 142.78207 424.96277L142.78207 424.96277L142.78207 424.96277C 143.12938 422.32626 142.04373 419.7047 139.93408 418.0857L139.93408 418.0857L139.93408 418.0857L139.93408 418.0857L139.93408 418.0857" />    </clipPath>
    <clipPath  id="70">

    <path id=""  clip-rule="evenodd" transform="matrix(1 0 0 1 0 0)"  d="M175.22658 440.46967C 171.65614 438.54712 167.1244 439.92035 165.20187 443.62814L165.20187 443.62814L165.20187 443.62814C 163.27933 447.33594 164.65257 451.7303 168.36034 453.65286L168.36034 453.65286L168.36034 453.65286C 169.48553 454.15723 170.69836 454.4371 171.93077 454.47684L171.93077 454.47684L171.93077 454.47684C 173.89749 454.47687 175.78366 453.69556 177.17435 452.3049L177.17435 452.3049L177.17435 452.3049C 178.56502 450.9142 179.3463 449.028 179.34631 447.06128L179.34631 447.06128L179.34631 447.06128C 179.34631 444.3148 177.83574 441.7056 175.22656 440.46967z" />    </clipPath>
    <clipPath  id="71">

    <path id=""  clip-rule="evenodd" transform="matrix(1 0 0 1 0 0)"  d="M175.22658 440.46967C 171.65614 438.54712 167.1244 439.92035 165.20187 443.62814L165.20187 443.62814L165.20187 443.62814C 163.27933 447.33594 164.65257 451.7303 168.36034 453.65286L168.36034 453.65286L168.36034 453.65286C 169.48553 454.15723 170.69836 454.4371 171.93077 454.47684L171.93077 454.47684L171.93077 454.47684C 173.89749 454.47687 175.78366 453.69556 177.17435 452.3049L177.17435 452.3049L177.17435 452.3049C 178.56502 450.9142 179.3463 449.028 179.34631 447.06128L179.34631 447.06128L179.34631 447.06128C 179.34631 444.3148 177.83574 441.7056 175.22656 440.46967" />    </clipPath>
    <clipPath  id="72">

    <path id=""  clip-rule="evenodd" transform="matrix(1 0 0 1 0 0)"  d="M82.944244 365.07828C 86.514694 363.01843 87.75061 358.48666 85.82806 354.91623L85.82806 354.91623L85.82806 354.91623C 83.76818 351.3458 79.236465 350.10983 75.66602 352.0324L75.66602 352.0324L75.66602 352.0324C 72.09558 353.955 70.85965 358.62402 72.782196 362.19446L72.782196 362.19446L72.782196 362.19446L72.782196 362.19446L72.782196 362.19446L72.782196 362.19446L72.782196 362.19446C 74.15545 364.529 76.62729 365.90222 79.23647 366.03955L79.23647 366.03955L79.23647 366.03955C 80.4724 366.03955 81.70832 365.76492 82.944244 365.07828z" />    </clipPath>
    <clipPath  id="73">

    <path id=""  clip-rule="evenodd" transform="matrix(1 0 0 1 0 0)"  d="M82.944244 365.07828C 86.514694 363.01843 87.75061 358.48666 85.82806 354.91623L85.82806 354.91623L85.82806 354.91623C 83.76818 351.3458 79.236465 350.10983 75.66602 352.0324L75.66602 352.0324L75.66602 352.0324C 72.09558 353.955 70.85965 358.62402 72.782196 362.19446L72.782196 362.19446L72.782196 362.19446L72.782196 362.19446L72.782196 362.19446L72.782196 362.19446L72.782196 362.19446C 74.15545 364.529 76.62729 365.90222 79.23647 366.03955L79.23647 366.03955L79.23647 366.03955C 80.4724 366.03955 81.70832 365.6276 82.80692 365.07828" />    </clipPath>
    <clipPath  id="74">

    <path id=""  clip-rule="evenodd" transform="matrix(1 0 0 1 0 0)"  d="M49.986267 241.21118L49.986267 241.21118L49.986267 241.21118L50.53557 241.21118L50.53557 241.21118L50.53557 241.21118C 54.631058 241.05951 57.82815 237.61652 57.676464 233.521L57.676464 233.521L57.676464 233.521C 57.524776 229.42554 54.08176 226.22845 49.986267 226.38013L49.986267 226.38013L49.986267 226.38013C 48.01908 226.4516 46.161045 227.30237 44.821583 228.74484L44.821583 228.74484L44.821583 228.74484C 43.48213 230.18732 42.77117 232.10321 42.845375 234.07031L42.845375 234.07031L42.845375 234.07031C 42.9827 237.9154 46.141174 241.07385 49.986267 241.21118z" />    </clipPath>
    <clipPath  id="75">

    <path id=""  clip-rule="evenodd" transform="matrix(1 0 0 1 0 0)"  d="M49.986267 241.21118L49.986267 241.21118L49.986267 241.21118L50.53557 241.21118L50.53557 241.21118L50.53557 241.21118C 54.631058 241.05951 57.82815 237.61652 57.676464 233.521L57.676464 233.521L57.676464 233.521C 57.524776 229.42554 54.08176 226.22845 49.986267 226.38013L49.986267 226.38013L49.986267 226.38013C 48.01908 226.4516 46.161045 227.30237 44.821583 228.74484L44.821583 228.74484L44.821583 228.74484C 43.48213 230.18732 42.77117 232.10321 42.845375 234.07031L42.845375 234.07031L42.845375 234.07031C 42.9827 237.9154 46.141174 241.07385 49.986267 241.21118" />    </clipPath>
    <clipPath  id="76">

    <path id=""  clip-rule="evenodd" transform="matrix(1 0 0 1 0 0)"  d="M52.870087 284.46857C 56.989834 284.1939 60.148308 280.62347 59.873657 276.50372L59.873657 276.50372L59.873657 276.50372C 59.599003 272.38394 56.028557 269.22546 51.908813 269.50012L51.908813 269.50012L51.908813 269.50012C 47.789066 269.77478 44.630592 273.3452 44.905243 277.465L44.905243 277.465L44.905243 277.465C 45.179893 281.1728 48.201042 284.1939 51.908813 284.46857L51.908813 284.46857L51.908813 284.46857L51.908813 284.46857L52.870087 284.46857z" />    </clipPath>
    <clipPath  id="77">

    <path id=""  clip-rule="evenodd" transform="matrix(1 0 0 1 0 0)"  d="M52.870087 284.46857C 56.989834 284.1939 60.148308 280.62347 59.873657 276.50372L59.873657 276.50372L59.873657 276.50372C 59.599003 272.38394 56.028557 269.22546 51.908813 269.50012L51.908813 269.50012L51.908813 269.50012C 47.789066 269.77478 44.630592 273.3452 44.905243 277.465L44.905243 277.465L44.905243 277.465C 45.179893 281.1728 48.201042 284.1939 51.908813 284.46857L51.908813 284.46857L51.908813 284.46857L51.908813 284.46857L52.870087 284.46857" />    </clipPath>
    <clipPath  id="78">

    <path id=""  clip-rule="evenodd" transform="matrix(1 0 0 1 0 0)"  d="M50.67289 189.30237C 49.57429 193.28479 51.908817 197.26724 55.89124 198.36584L55.89124 198.36584L55.89124 198.36584C 56.57786 198.50314 57.26449 198.6405 57.95111 198.6405L57.95111 198.6405L57.95111 198.6405C 60.600433 198.6405 63.048508 197.22708 64.37316 194.93271L64.37316 194.93271L64.37316 194.93271C 65.69783 192.6383 65.69783 189.81152 64.37316 187.51715L64.37316 187.51715L64.37316 187.51715C 63.048508 185.22278 60.600433 183.80939 57.95111 183.80939L57.95111 183.80939L57.95111 183.80939C 54.65531 183.80939 51.634167 186.00659 50.81022 189.30237z" />    </clipPath>
    <clipPath  id="79">

    <path id=""  clip-rule="evenodd" transform="matrix(1 0 0 1 0 0)"  d="M50.67289 189.30237C 49.57429 193.28479 51.908817 197.26724 55.89124 198.36584L55.89124 198.36584L55.89124 198.36584C 56.57786 198.50314 57.26449 198.6405 57.95111 198.6405L57.95111 198.6405L57.95111 198.6405C 60.600433 198.6405 63.048508 197.22708 64.37316 194.93271L64.37316 194.93271L64.37316 194.93271C 65.69783 192.6383 65.69783 189.81152 64.37316 187.51715L64.37316 187.51715L64.37316 187.51715C 63.048508 185.22278 60.600433 183.80939 57.95111 183.80939L57.95111 183.80939L57.95111 183.80939C 54.65531 183.80939 51.634167 186.00659 50.81022 189.30237" />    </clipPath>
    <clipPath  id="80">

    <path id=""  clip-rule="evenodd" transform="matrix(1 0 0 1 0 0)"  d="M79.9231 154.28455L79.9231 154.28455L79.9231 154.28455L79.9231 154.28455L79.9231 154.28455L79.9231 154.28455C 81.70832 150.57678 80.335075 146.18237 76.627304 144.25983L76.627304 144.25983L76.627304 144.25983C 72.91954 142.33728 68.52514 143.84784 66.602585 147.5556L66.602585 147.5556L66.602585 147.5556L66.602585 147.5556L66.602585 147.5556L66.602585 147.5556L66.602585 147.5556C 64.68004 151.12607 66.05329 155.65778 69.761055 157.58032L69.761055 157.58032L69.761055 157.58032C 73.331505 159.50287 77.86323 158.12964 79.785774 154.42184L79.785774 154.42184L79.785774 154.42184L79.785774 154.42184L79.785774 154.28455z" />    </clipPath>
    <clipPath  id="81">

    <path id=""  clip-rule="evenodd" transform="matrix(1 0 0 1 0 0)"  d="M79.9231 154.28455L79.9231 154.28455L79.9231 154.28455L79.9231 154.28455L79.9231 154.28455L79.9231 154.28455C 81.70832 150.57678 80.335075 146.18237 76.627304 144.25983L76.627304 144.25983L76.627304 144.25983C 72.91954 142.33728 68.52514 143.84784 66.602585 147.5556L66.602585 147.5556L66.602585 147.5556L66.602585 147.5556L66.602585 147.5556L66.602585 147.5556L66.602585 147.5556C 64.68004 151.12607 66.05329 155.65778 69.761055 157.58032L69.761055 157.58032L69.761055 157.58032C 73.331505 159.50287 77.86323 158.12964 79.785774 154.42184" />    </clipPath>
    <clipPath  id="82">

    <path id=""  clip-rule="evenodd" transform="matrix(1 0 0 1 0 0)"  d="M59.18704 312.20816C 55.341938 313.4441 53.144745 317.70117 54.51799 321.54626L54.51799 321.54626L54.51799 321.54626C 55.479263 324.5674 58.363087 326.6273 61.521557 326.6273L61.521557 326.6273L61.521557 326.6273C 64.170876 326.6273 66.61895 325.2139 67.94361 322.91953L67.94361 322.91953L67.94361 322.91953C 69.26827 320.62512 69.26827 317.79834 67.94361 315.50397L67.94361 315.50397L67.94361 315.50397C 66.61895 313.2096 64.170876 311.79617 61.521557 311.7962L61.521557 311.7962L61.521557 311.7962C 60.697605 311.7962 59.87366 311.7962 59.187035 312.20816z" />    </clipPath>
    <clipPath  id="83">

    <path id=""  clip-rule="evenodd" transform="matrix(1 0 0 1 0 0)"  d="M59.18704 312.20816C 55.341938 313.4441 53.144745 317.70117 54.51799 321.54626L54.51799 321.54626L54.51799 321.54626C 55.479263 324.5674 58.363087 326.6273 61.521557 326.6273L61.521557 326.6273L61.521557 326.6273C 64.170876 326.6273 66.61895 325.2139 67.94361 322.91953L67.94361 322.91953L67.94361 322.91953C 69.26827 320.62512 69.26827 317.79834 67.94361 315.50397L67.94361 315.50397L67.94361 315.50397C 66.61895 313.2096 64.170876 311.79617 61.521557 311.7962L61.521557 311.7962L61.521557 311.7962C 60.697605 311.7962 59.87366 311.7962 59.187035 312.20816" />    </clipPath>
</defs>

<g transform="matrix(1.3333 0 0 1.3333 0 0)">
	<g clip-path="url(#1)" >
		<g clip-path="url(#2)" >
			<g clip-path="url(#3)" >
    <path id=""  transform="matrix(1 0 0 -1 0 500)"  d="M25.130459 342.83163L25.130459 342.83163L25.130459 342.83163L19.362814 350.10986L19.362814 350.10986L26.641035 355.8775L26.641035 355.8775L32.408684 348.5993L32.408684 348.5993L25.130463 342.83163z" stroke="none" fill="#A6B3C1" fill-rule="nonzero" />
			</g>
		</g>
		<g clip-path="url(#4)" >
			<g clip-path="url(#5)" >
    <path id=""  transform="matrix(1 0 0 -1 0 500)"  d="M152.84262 453.3782L152.84262 453.3782L152.84262 453.3782L147.2123 460.51907L147.2123 460.51907L154.35321 466.1494L154.35321 466.1494L159.98352 459.0085L159.98352 459.0085L152.7053 453.3782z" stroke="none" fill="#A6B3C1" fill-rule="nonzero" />
			</g>
		</g>
		<g clip-path="url(#6)" >
			<g clip-path="url(#7)" >
    <path id=""  transform="matrix(1 0 0 -1 0 500)"  d="M87.063995 69.82971L87.063995 69.82971L87.063995 69.82971L81.43368 76.97058L81.43368 76.97058L88.57457 82.60092L88.57457 82.60092L94.20489 75.46005L94.20489 75.46005L86.92667 69.82971z" stroke="none" fill="#A6B3C1" fill-rule="nonzero" />
			</g>
		</g>
		<g clip-path="url(#8)" >
			<g clip-path="url(#9)" >
    <path id=""  transform="matrix(1 0 0 -1 0 500)"  d="M55.753914 99.76654L55.753914 99.76654L55.753914 99.76654L50.123596 106.90744L50.123596 106.90744L57.26449 112.53775L57.26449 112.53775L62.894806 105.39688L62.894806 105.39688L55.753914 99.76654z" stroke="none" fill="#A6B3C1" fill-rule="nonzero" />
			</g>
		</g>
		<g clip-path="url(#10)" >
			<g clip-path="url(#11)" >
    <path id=""  transform="matrix(1 0 0 -1 0 500)"  d="M9.475418 302.59546L9.475418 302.59546L9.475418 302.59546L3.845097 309.73633L3.845097 309.73633L10.985992 315.36667L10.985992 315.36667L16.616314 308.22577L16.616314 308.22577L9.475418 302.59546z" stroke="none" fill="#A6B3C1" fill-rule="nonzero" />
			</g>
		</g>
		<g clip-path="url(#12)" >
			<g clip-path="url(#13)" >
    <path id=""  transform="matrix(1 0 0 -1 0 500)"  d="M3.5704474 216.90471L3.5704474 216.90471L3.5704474 216.90471L-1.7852237 223.77095L-1.7852237 223.77095L5.081022 229.26396L5.081022 229.26396L10.436693 222.3977L10.436693 222.3977L3.5704474 216.90471z" stroke="none" fill="#A6B3C1" fill-rule="nonzero" />
			</g>
		</g>
		<g clip-path="url(#14)" >
			<g clip-path="url(#15)" >
    <path id=""  transform="matrix(1 0 0 -1 0 500)"  d="M2.3345234 260.16205L2.3345234 260.16205L2.3345234 260.16205L-3.021148 266.89096L-3.021148 266.89096L3.707773 272.24664L3.707773 272.24664L9.063444 265.5177L9.063444 265.5177L2.3345234 260.16205z" stroke="none" fill="#A6B3C1" fill-rule="nonzero" />
			</g>
		</g>
		<g clip-path="url(#16)" >
			<g clip-path="url(#17)" >
    <path id=""  transform="matrix(1 0 0 -1 0 500)"  d="M30.898106 135.05905L30.898106 135.05905L30.898106 135.05905L25.130457 142.33725L25.130457 142.33725L32.40868 148.10489L32.40868 148.10489L38.176327 140.82669L38.176327 140.82669L30.898106 135.05905z" stroke="none" fill="#A6B3C1" fill-rule="nonzero" />
			</g>
		</g>
		<g clip-path="url(#18)" >
			<g clip-path="url(#19)" >
    <path id=""  transform="matrix(1 0 0 -1 0 500)"  d="M163.96594 31.378754L163.96594 31.378754L163.96594 31.378754L158.47295 38.382324L158.47295 38.382324L165.61385 44.012665L165.61385 44.012665L171.10684 37.009094L171.10684 37.009094L163.96594 31.378754z" stroke="none" fill="#A6B3C1" fill-rule="nonzero" />
			</g>
		</g>
		<g clip-path="url(#20)" >
			<g clip-path="url(#21)" >
    <path id=""  transform="matrix(1 0 0 -1 0 500)"  d="M48.201042 379.36008L48.201042 379.36008L48.201042 379.36008L42.570717 386.50098L42.570717 386.50098L49.711613 392.26862L49.711613 392.26862L55.34193 385.12772L55.34193 385.12772L48.20104 379.36008z" stroke="none" fill="#A6B3C1" fill-rule="nonzero" />
			</g>
		</g>
		<g clip-path="url(#22)" >
			<g clip-path="url(#23)" >
    <path id=""  transform="matrix(1 0 0 -1 0 500)"  d="M113.29305 435.52594L113.29305 435.52594L113.29305 435.52594L107.525406 442.80417L107.525406 442.80417L114.80363 448.57184L114.80363 448.57184L120.57127 441.2936L120.57127 441.2936L113.29305 435.52594z" stroke="none" fill="#A6B3C1" fill-rule="nonzero" />
			</g>
		</g>
		<g clip-path="url(#24)" >
			<g clip-path="url(#25)" >
    <path id=""  transform="matrix(1 0 0 -1 0 500)"  d="M78.13787 410.67014L78.13787 410.67014L78.13787 410.67014L72.50755 417.81104L72.50755 417.81104L79.648445 423.44135L79.648445 423.44135L85.27876 416.30048L85.27876 416.30048L78.13787 410.67014z" stroke="none" fill="#A6B3C1" fill-rule="nonzero" />
			</g>
		</g>
		<g clip-path="url(#26)" >
			<g clip-path="url(#27)" >
    <path id=""  transform="matrix(1 0 0 -1 0 500)"  d="M123.59242 46.621796L123.59242 46.621796L123.59242 46.621796L117.82477 53.899994L117.82477 53.899994L125.10299 59.667664L125.10299 59.667664L130.87064 52.389465L130.87064 52.389465L123.59242 46.621796z" stroke="none" fill="#A6B3C1" fill-rule="nonzero" />
			</g>
		</g>
		<g clip-path="url(#28)" >
			<g clip-path="url(#29)" >
    <path id=""  transform="matrix(1 0 0 -1 0 500)"  d="M13.320517 174.60861L13.320517 174.60861L13.320517 174.60861L7.690195 181.74951L7.690195 181.74951L14.83109 187.37982L14.83109 187.37982L20.461412 180.23892L20.461412 180.23892L13.320518 174.60861z" stroke="none" fill="#A6B3C1" fill-rule="nonzero" />
			</g>
		</g>
		<g clip-path="url(#30)" >
			<g clip-path="url(#31)" >
    <path id=""  transform="matrix(1 0 0 -1 0 500)"  d="M25.679758 257.1409L25.679758 257.1409L25.679758 257.1409L17.714914 267.1656L17.714914 267.1656L27.876957 275.13046L27.876957 275.13046L35.8418 265.10574L35.8418 265.10574L25.679756 257.1409z" stroke="none" fill="#A6B3C1" fill-rule="nonzero" />
			</g>
		</g>
		<g clip-path="url(#32)" >
			<g clip-path="url(#33)" >
    <path id=""  transform="matrix(1 0 0 -1 0 500)"  d="M71.6836 376.2016L71.6836 376.2016L71.6836 376.2016L63.16946 386.91293L63.16946 386.91293L74.01813 395.42706L74.01813 395.42706L82.53227 384.71573L82.53227 384.71573L71.68361 376.2016z" stroke="none" fill="#A6B3C1" fill-rule="nonzero" />
			</g>
		</g>
		<g clip-path="url(#34)" >
			<g clip-path="url(#35)" >
    <path id=""  transform="matrix(1 0 0 -1 0 500)"  d="M26.915684 213.88354L26.915684 213.88354L26.915684 213.88354L18.813513 224.1829L18.813513 224.1829L29.11288 232.28508L29.11288 232.28508L37.21505 221.98572L37.21505 221.98572L26.915684 213.88354z" stroke="none" fill="#A6B3C1" fill-rule="nonzero" />
			</g>
		</g>
		<g clip-path="url(#36)" >
			<g clip-path="url(#37)" >
    <path id=""  transform="matrix(1 0 0 -1 0 500)"  d="M48.475693 339.67316L48.475693 339.67316L48.475693 339.67316L39.96155 350.52185L39.96155 350.52185L50.81022 359.1733L50.81022 359.1733L59.32436 348.32462L59.32436 348.32462L48.475693 339.67316z" stroke="none" fill="#A6B3C1" fill-rule="nonzero" />
			</g>
		</g>
		<g clip-path="url(#38)" >
			<g clip-path="url(#39)" >
    <path id=""  transform="matrix(1 0 0 -1 0 500)"  d="M32.820652 299.43698L32.820652 299.43698L32.820652 299.43698L24.443834 310.011L24.443834 310.011L35.155178 318.38782L35.155178 318.38782L43.531998 307.81378L43.531998 307.81378L32.820652 299.43698z" stroke="none" fill="#A6B3C1" fill-rule="nonzero" />
			</g>
		</g>
		<g clip-path="url(#40)" >
			<g clip-path="url(#41)" >
    <path id=""  transform="matrix(1 0 0 -1 0 500)"  d="M176.18785 450.35706L176.18785 450.35706L176.18785 450.35706L167.6737 461.0684L167.6737 461.0684L178.38504 469.58252L178.38504 469.58252L186.8992 458.8712L186.8992 458.8712L176.18785 450.35706z" stroke="none" fill="#A6B3C1" fill-rule="nonzero" />
			</g>
		</g>
		<g clip-path="url(#42)" >
			<g clip-path="url(#43)" >
    <path id=""  transform="matrix(1 0 0 -1 0 500)"  d="M110.409225 66.671265L110.409225 66.671265L110.409225 66.671265L101.89507 77.3826L101.89507 77.3826L112.743744 85.89673L112.743744 85.89673L121.2579 75.185394L121.2579 75.185394L110.409225 66.671265z" stroke="none" fill="#A6B3C1" fill-rule="nonzero" />
			</g>
		</g>
		<g clip-path="url(#44)" >
			<g clip-path="url(#45)" >
    <path id=""  transform="matrix(1 0 0 -1 0 500)"  d="M36.665752 171.45016L36.665752 171.45016L36.665752 171.45016L28.151608 182.1615L28.151608 182.1615L39.00028 190.67566L39.00028 190.67566L47.51442 179.96432L47.51442 179.96432L36.665752 171.45016z" stroke="none" fill="#A6B3C1" fill-rule="nonzero" />
			</g>
		</g>
		<g clip-path="url(#46)" >
			<g clip-path="url(#47)" >
    <path id=""  transform="matrix(1 0 0 -1 0 500)"  d="M136.77562 432.50482L136.77562 432.50482L136.77562 432.50482L128.26147 443.3535L128.26147 443.3535L139.24745 452.00494L139.24745 452.00494L147.7616 441.15628L147.7616 441.15628L136.7756 432.50482z" stroke="none" fill="#A6B3C1" fill-rule="nonzero" />
			</g>
		</g>
		<g clip-path="url(#48)" >
			<g clip-path="url(#49)" >
    <path id=""  transform="matrix(1 0 0 -1 0 500)"  d="M146.93765 43.463318L146.93765 43.463318L146.93765 43.463318L138.4235 54.31198L138.4235 54.31198L149.4095 62.96347L149.4095 62.96347L157.92365 52.114777L157.92365 52.114777L146.93765 43.463318z" stroke="none" fill="#A6B3C1" fill-rule="nonzero" />
			</g>
		</g>
		<g clip-path="url(#50)" >
			<g clip-path="url(#51)" >
    <path id=""  transform="matrix(1 0 0 -1 0 500)"  d="M79.09915 96.60809L79.09915 96.60809L79.09915 96.60809L70.722336 107.31943L70.722336 107.31943L81.43368 115.83356L81.43368 115.83356L89.81049 105.12225L89.81049 105.12225L79.09915 96.60809z" stroke="none" fill="#A6B3C1" fill-rule="nonzero" />
			</g>
		</g>
		<g clip-path="url(#52)" >
			<g clip-path="url(#53)" >
    <path id=""  transform="matrix(1 0 0 -1 0 500)"  d="M101.48311 407.51166L101.48311 407.51166L101.48311 407.51166L93.10629 418.22302L93.10629 418.22302L103.817635 426.73715L103.817635 426.73715L112.19445 416.02582L112.19445 416.02582L101.48311 407.51166z" stroke="none" fill="#A6B3C1" fill-rule="nonzero" />
			</g>
		</g>
		<g clip-path="url(#54)" >
			<g clip-path="url(#55)" >
    <path id=""  transform="matrix(1 0 0 -1 0 500)"  d="M187.31119 28.357605L187.31119 28.357605L187.31119 28.357605L178.93436 38.93161L178.93436 38.93161L189.50838 47.30844L189.50838 47.30844L197.88521 36.734436L197.88521 36.734436L187.31119 28.357605z" stroke="none" fill="#A6B3C1" fill-rule="nonzero" />
			</g>
		</g>
		<g clip-path="url(#56)" >
			<g clip-path="url(#57)" >
    <path id=""  transform="matrix(1 0 0 -1 0 500)"  d="M54.24334 131.9006L54.24334 131.9006L54.24334 131.9006L45.7292 142.74927L45.7292 142.74927L56.715195 151.40073L56.715195 151.40073L65.22934 140.55206L65.22934 140.55206L54.24334 131.9006z" stroke="none" fill="#A6B3C1" fill-rule="nonzero" />
			</g>
		</g>
		<g clip-path="url(#58)" >
			<g clip-path="url(#59)" >
    <path id=""  transform="matrix(1 0 0 -1 0 500)"  d="M94.61687 370.02197L94.61687 370.02197L94.61687 370.02197L80.4724 387.8742L80.4724 387.8742L98.46196 402.156L98.46196 402.156L112.60643 384.30377L112.60643 384.30377L94.61687 370.02197z" stroke="none" fill="#A6B3C1" fill-rule="nonzero" />
			</g>
		</g>
		<g clip-path="url(#60)" >
			<g clip-path="url(#61)" >
    <path id=""  transform="matrix(1 0 0 -1 0 500)"  d="M124.41637 401.33206L124.41637 401.33206L124.41637 401.33206L110.40923 419.1843L110.40923 419.1843L128.26147 433.32877L128.26147 433.32877L142.2686 415.4765L142.2686 415.4765L124.41637 401.33206z" stroke="none" fill="#A6B3C1" fill-rule="nonzero" />
			</g>
		</g>
		<g clip-path="url(#62)" >
			<g clip-path="url(#63)" >
    <path id=""  transform="matrix(1 0 0 -1 0 500)"  d="M197.61055 450.769L197.61055 450.769L197.61055 450.769L187.58585 463.40292L187.58585 463.40292L200.35707 473.42764L200.35707 473.42764L210.38177 460.79373L210.38177 460.79373L197.61055 450.769z" stroke="none" fill="#A6B3C1" fill-rule="nonzero" />
			</g>
		</g>
		<g clip-path="url(#64)" >
			<g clip-path="url(#65)" >
    <path id=""  transform="matrix(1 0 0 -1 0 500)"  d="M159.70886 426.18787L159.70886 426.18787L159.70886 426.18787L145.42708 444.31476L145.42708 444.31476L145.42708 444.31476L145.42708 444.31476L163.6913 458.73386L163.6913 458.73386L163.6913 458.73386L163.6913 458.73386L177.97308 440.60696L177.97308 440.60696L159.70886 426.18787z" stroke="none" fill="#A6B3C1" fill-rule="nonzero" />
			</g>
		</g>
		<g clip-path="url(#66)" >
			<g clip-path="url(#67)" >
    <path id=""  transform="matrix(1 0 0 -1 0 500)"  d="M102.16973 90.42844L102.16973 90.42844L102.16973 90.42844L88.16259 108.2807L88.16259 108.2807L106.01483 122.42514L106.01483 122.42514L120.021965 104.710205L120.021965 104.710205L102.16973 90.565765z" stroke="none" fill="#A6B3C1" fill-rule="nonzero" />
			</g>
		</g>
		<g clip-path="url(#68)" >
			<g clip-path="url(#69)" >
    <path id=""  transform="matrix(1 0 0 -1 0 500)"  d="M133.3425 60.491608L133.3425 60.491608L133.3425 60.491608L119.19803 78.34384L119.19803 78.34384L137.18759 92.62567L137.18759 92.62567L151.33206 74.77341L151.33206 74.77341L133.3425 60.491608z" stroke="none" fill="#A6B3C1" fill-rule="nonzero" />
			</g>
		</g>
		<g clip-path="url(#70)" >
			<g clip-path="url(#71)" >
    <path id=""  transform="matrix(1 0 0 -1 0 500)"  d="M169.87091 37.28369L169.87091 37.28369L169.87091 37.28369L155.58913 55.410583L155.58913 55.410583L173.85335 69.82971L173.85335 69.82971L188.13513 51.70282L188.13513 51.70282L169.87091 37.28369z" stroke="none" fill="#A6B3C1" fill-rule="nonzero" />
			</g>
		</g>
		<g clip-path="url(#72)" >
			<g clip-path="url(#73)" >
    <path id=""  transform="matrix(1 0 0 -1 0 500)"  d="M77.31392 125.58362L77.31392 125.58362L77.31392 125.58362L63.03213 143.71051L63.03213 143.71051L81.29635 158.12964L81.29635 158.12964L95.57814 140.00275L95.57814 140.00275L77.31393 125.58362z" stroke="none" fill="#A6B3C1" fill-rule="nonzero" />
			</g>
		</g>
		<g clip-path="url(#74)" >
			<g clip-path="url(#75)" >
    <path id=""  transform="matrix(1 0 0 -1 0 500)"  d="M48.75034 251.23592L48.75034 251.23592L48.75034 251.23592L35.429825 267.98956L35.429825 267.98956L52.320793 281.31006L52.320793 281.31006L65.641304 264.55646L65.641304 264.55646L48.75034 251.23592z" stroke="none" fill="#A6B3C1" fill-rule="nonzero" />
			</g>
		</g>
		<g clip-path="url(#76)" >
			<g clip-path="url(#77)" >
    <path id=""  transform="matrix(1 0 0 -1 0 500)"  d="M49.986267 207.84125L49.986267 207.84125L49.986267 207.84125L36.528427 225.00687L36.528427 225.00687L53.69404 238.60204L53.69404 238.60204L67.15188 221.43642L67.15188 221.43642L49.986267 207.84125z" stroke="none" fill="#A6B3C1" fill-rule="nonzero" />
			</g>
		</g>
		<g clip-path="url(#78)" >
			<g clip-path="url(#79)" >
    <path id=""  transform="matrix(1 0 0 -1 0 500)"  d="M55.891243 293.25735L55.891243 293.25735L55.891243 293.25735L41.884106 310.9723L41.884106 310.9723L59.73634 324.9794L59.73634 324.9794L73.74348 307.2645L73.74348 307.2645L55.891243 293.25732z" stroke="none" fill="#A6B3C1" fill-rule="nonzero" />
			</g>
		</g>
		<g clip-path="url(#80)" >
			<g clip-path="url(#81)" >
    <path id=""  transform="matrix(1 0 0 -1 0 500)"  d="M71.40895 333.35623L71.40895 333.35623L71.40895 333.35623L57.12716 351.34576L57.12716 351.34576L57.12716 351.34576L57.12716 351.34576L75.25404 365.7649L75.25404 365.7649L89.53583 347.77533L89.53583 347.77533L89.53583 347.77533L89.53583 347.77533L71.40895 333.35623z" stroke="none" fill="#A6B3C1" fill-rule="nonzero" />
			</g>
		</g>
		<g clip-path="url(#82)" >
			<g clip-path="url(#83)" >
    <path id=""  transform="matrix(1 0 0 -1 0 500)"  d="M59.736332 165.27054L59.736332 165.27054L59.736332 165.27054L45.591866 183.1228L45.591866 183.1228L63.581432 197.26727L63.581432 197.26727L77.7259 179.41501L77.7259 179.41501L59.736332 165.27054z" stroke="none" fill="#A6B3C1" fill-rule="nonzero" />
			</g>
		</g>
    <path id=""  transform="matrix(1 0 0 -1 0 500)"  d="M286.87173 449.39578C 396.73166 449.6704 485.99286 360.68387 486.2675 250.82394L486.2675 250.82394L486.2675 250.82394C 486.2675 205.50671 471.0244 161.56274 442.73547 126.132935L442.73547 126.132935L442.73547 126.132935L442.73547 126.132935L456.7426 55.685272L456.7426 55.685272L372.8371 69.69238L372.8371 69.69238L372.8371 69.69238C 346.00586 56.876617 316.60538 50.34842 286.8717 50.604248L286.8717 50.604248L286.8717 50.604248C 176.7371 51.56549 88.16255 141.51334 89.12384 251.64792L89.12384 251.64792L89.12384 251.64792C 90.09309 360.45703 178.06258 448.42654 286.8717 449.39578" stroke="#A6B3C1" stroke-width="27.464981" stroke-linejoin="miter" fill="#EBEEF1" fill-rule="nonzero" />
    <path id=""  transform="matrix(1 0 0 -1 0 500)"  d="M423.37268 250.96127C 423.37268 288.92044 409.9521 321.3206 383.11093 348.16174L383.11093 348.16174L383.11093 348.16174C 356.26978 375.00293 323.8696 388.42352 285.91046 388.42352L285.91046 388.42352L285.91046 388.42352C 247.95131 388.42352 215.55113 375.00293 188.70998 348.16174L188.70998 348.16174L188.70998 348.16174C 161.86882 321.3206 148.44823 288.92044 148.44823 250.96127L148.44823 250.96127L148.44823 250.96127C 148.44823 213.00212 161.86882 180.60196 188.70998 153.7608L188.70998 153.7608L188.70998 153.7608C 215.55113 126.919586 247.95131 113.49902 285.91046 113.49902L285.91046 113.49902L285.91046 113.49902C 323.8696 113.49902 356.26978 126.919586 383.11093 153.7608L383.11093 153.7608L383.11093 153.7608C 409.9521 180.60196 423.37268 213.00212 423.37268 250.96127" stroke="#A6B3C1" stroke-width="27.464981" stroke-linejoin="miter" fill="#EBEEF1" fill-rule="evenodd" />
	</g>
</g>
</svg>
